<svg xmlns="http://www.w3.org/2000/svg" viewBox="0 0 1200 540" style="background-color: #1c1c1c; font-family: sans-serif;">
<rect x="0" y="0" width="1200" height="450" fill="#1c1c1c" />
<line x1="60" y1="405" x2="1140" y2="405" stroke="#444" stroke-width="2" />
<line x1="60" y1="45" x2="60" y2="405" stroke="#444" stroke-width="2" />
<text x="60" y="30" fill="#aaa" font-size="20">1772W</text>
<text x="1140" y="440" fill="#aaa" font-size="20" text-anchor="middle">84m</text>
<text x="600" y="30" fill="#fff" font-size="26" text-anchor="middle" font-weight="bold">Profile Comparison: Quick</text>
<polygon points="60.0,213.3 66.7,76.4 73.3,74.6 80.0,88.9 86.7,78.9 93.3,90.3 100.0,90.3 106.7,80.5 113.3,89.0 120.0,90.3 126.7,90.3 133.3,86.5 140.0,88.6 146.7,90.3 153.3,90.3 160.0,90.3 166.7,88.9 173.3,88.2 180.0,83.1 186.7,90.5 193.3,186.9 200.0,229.8 206.7,235.8 213.3,241.7 220.0,247.7 226.7,253.6 233.3,259.6 240.0,265.5 246.7,271.5 253.3,277.4 260.0,283.4 266.7,289.3 273.3,295.3 280.0,301.2 286.7,307.2 293.3,313.1 300.0,319.1 306.7,325.0 313.3,331.0 320.0,339.9 326.7,348.8 333.3,354.8 340.0,360.7 346.7,366.7 353.3,372.6 360.0,378.6 366.7,384.5 373.3,390.5 380.0,398.8 386.7,398.8 393.3,398.8 400.0,398.8 406.7,398.8 413.3,398.8 420.0,399.5 426.7,399.5 433.3,399.5 440.0,399.5 446.7,399.5 453.3,399.5 460.0,399.5 466.7,399.5 473.3,399.5 480.0,399.5 486.7,399.5 493.3,399.5 500.0,398.0 506.7,398.0 513.3,398.0 520.0,398.0 526.7,398.0 533.3,398.0 540.0,395.1 546.7,398.0 553.3,398.0 560.0,398.0 566.7,398.0 573.3,398.0 580.0,398.0 586.7,398.0 593.3,398.0 600.0,398.0 606.7,398.0 613.3,397.2 620.0,400.0 626.7,400.0 633.3,400.0 640.0,400.0 646.7,400.0 653.3,400.0 660.0,402.6 666.7,402.3 673.3,403.3 680.0,403.3 686.7,403.3 693.3,403.3 700.0,403.5 706.7,403.5 713.3,403.5 720.0,403.6 726.7,403.6 733.3,403.6 740.0,403.5 746.7,403.5 753.3,403.5 760.0,403.5 766.7,403.6 773.3,403.6 780.0,400.5 786.7,403.3 793.3,403.5 800.0,403.5 806.7,403.5 813.3,403.5 820.0,403.6 826.7,403.6 833.3,403.6 840.0,403.5 846.7,403.5 853.3,403.5 860.0,403.4 866.7,403.6 873.3,403.6 880.0,403.5 886.7,403.5 893.3,403.6 900.0,403.6 906.7,403.6 913.3,403.5 920.0,399.8 926.7,403.6 933.3,403.6 940.0,403.6 946.7,403.6 953.3,403.6 960.0,403.6 966.7,402.8 973.3,396.7 980.0,403.6 986.7,403.6 993.3,403.6 1000.0,402.2 1006.7,403.3 1013.3,403.5 1020.0,403.5 1026.7,403.6 1033.3,403.6 1040.0,403.6 1046.7,403.5 1053.3,402.0 1060.0,403.5 1066.7,403.5 1073.3,403.6 1080.0,403.6 1086.7,403.6 1093.3,403.6 1100.0,403.6 1106.7,403.6 1113.3,403.6 1120.0,403.6 1126.7,403.6 1133.3,403.6 1140.0,403.6 1140.0,405.0 1133.3,405.0 1126.7,405.0 1120.0,405.0 1113.3,405.0 1106.7,405.0 1100.0,405.0 1093.3,405.0 1086.7,405.0 1080.0,405.0 1073.3,405.0 1066.7,405.0 1060.0,405.0 1053.3,405.0 1046.7,405.0 1040.0,405.0 1033.3,405.0 1026.7,405.0 1020.0,405.0 1013.3,405.0 1006.7,405.0 1000.0,405.0 993.3,405.0 986.7,405.0 980.0,405.0 973.3,405.0 966.7,405.0 960.0,405.0 953.3,405.0 946.7,405.0 940.0,405.0 933.3,405.0 926.7,405.0 920.0,405.0 913.3,405.0 906.7,405.0 900.0,405.0 893.3,405.0 886.7,405.0 880.0,405.0 873.3,405.0 866.7,405.0 860.0,405.0 853.3,405.0 846.7,405.0 840.0,405.0 833.3,405.0 826.7,405.0 820.0,405.0 813.3,405.0 806.7,405.0 800.0,405.0 793.3,405.0 786.7,405.0 780.0,405.0 773.3,405.0 766.7,405.0 760.0,405.0 753.3,405.0 746.7,405.0 740.0,405.0 733.3,405.0 726.7,405.0 720.0,405.0 713.3,405.0 706.7,405.0 700.0,405.0 693.3,405.0 686.7,405.0 680.0,405.0 673.3,405.0 666.7,405.0 660.0,405.0 653.3,405.0 646.7,405.0 640.0,405.0 633.3,405.0 626.7,405.0 620.0,405.0 613.3,405.0 606.7,404.8 600.0,404.8 593.3,404.8 586.7,404.9 580.0,404.8 573.3,404.8 566.7,404.8 560.0,404.8 553.3,404.8 546.7,404.8 540.0,404.8 533.3,404.8 526.7,404.8 520.0,404.8 513.3,404.8 506.7,404.8 500.0,404.8 493.3,404.9 486.7,404.9 480.0,403.7 473.3,403.7 466.7,403.7 460.0,403.7 453.3,403.7 446.7,403.6 440.0,403.6 433.3,403.7 426.7,403.7 420.0,403.7 413.3,403.7 406.7,403.7 400.0,403.6 393.3,403.6 386.7,403.6 380.0,403.6 373.3,403.7 366.7,403.7 360.0,403.7 353.3,403.7 346.7,403.7 340.0,403.7 333.3,402.3 326.7,399.2 320.0,399.0 313.3,398.8 306.7,398.6 300.0,400.1 293.3,397.4 286.7,397.4 280.0,397.4 273.3,396.9 266.7,396.9 260.0,397.4 253.3,396.5 246.7,396.6 240.0,397.1 233.3,397.5 226.7,396.7 220.0,397.4 213.3,396.1 206.7,394.9 200.0,396.3 193.3,394.4 186.7,394.4 180.0,394.4 173.3,391.8 166.7,391.8 160.0,391.8 153.3,391.8 146.7,391.8 140.0,391.8 133.3,391.8 126.7,391.8 120.0,391.8 113.3,391.8 106.7,391.8 100.0,391.8 93.3,395.3 86.7,395.3 80.0,395.3 73.3,395.3 66.7,395.3 60.0,401.2" fill="#3498db" fill-opacity="0.2" stroke="none" />
<polyline points="60.0,370.5 66.7,189.0 73.3,127.6 80.0,133.4 86.7,131.7 93.3,199.0 100.0,167.5 106.7,132.1 113.3,133.3 120.0,144.3 126.7,177.6 133.3,133.9 140.0,134.2 146.7,153.4 153.3,137.6 160.0,153.7 166.7,148.1 173.3,149.0 180.0,214.8 186.7,169.6 193.3,297.5 200.0,349.9 206.7,369.8 213.3,373.0 220.0,374.0 226.7,375.8 233.3,377.2 240.0,378.0 246.7,378.3 253.3,377.1 260.0,380.6 266.7,381.3 273.3,382.2 280.0,383.3 286.7,384.2 293.3,384.9 300.0,386.7 306.7,386.9 313.3,387.7 320.0,388.3 326.7,390.2 333.3,393.7 340.0,396.4 346.7,397.3 353.3,398.1 360.0,399.0 366.7,399.9 373.3,400.8 380.0,402.2 386.7,402.8 393.3,402.8 400.0,402.8 406.7,402.8 413.3,402.9 420.0,403.0 426.7,403.0 433.3,403.0 440.0,403.0 446.7,403.0 453.3,403.1 460.0,403.1 466.7,402.9 473.3,402.8 480.0,403.1 486.7,403.2 493.3,403.2 500.0,403.0 506.7,403.0 513.3,402.9 520.0,402.7 526.7,402.9 533.3,403.0 540.0,402.6 546.7,403.0 553.3,403.0 560.0,403.0 566.7,402.9 573.3,402.6 580.0,403.0 586.7,403.0 593.3,403.0 600.0,403.0 606.7,402.9 613.3,402.9 620.0,403.0 626.7,403.2 633.3,403.3 640.0,403.3 646.7,403.3 653.3,403.3 660.0,403.6 666.7,403.6 673.3,403.8 680.0,403.8 686.7,403.8 693.3,403.8 700.0,403.8 706.7,403.8 713.3,403.8 720.0,403.8 726.7,403.8 733.3,403.8 740.0,403.8 746.7,403.8 753.3,403.8 760.0,403.8 766.7,403.8 773.3,403.8 780.0,403.4 786.7,403.8 793.3,403.8 800.0,403.8 806.7,403.8 813.3,403.8 820.0,403.8 826.7,403.8 833.3,403.8 840.0,403.8 846.7,403.8 853.3,403.8 860.0,403.8 866.7,403.9 873.3,404.0 880.0,404.1 886.7,404.3 893.3,404.4 900.0,404.4 906.7,404.4 913.3,404.3 920.0,403.8 926.7,404.4 933.3,404.4 940.0,404.4 946.7,404.4 953.3,404.4 960.0,404.4 966.7,404.2 973.3,403.4 980.0,404.3 986.7,404.4 993.3,404.4 1000.0,404.1 1006.7,404.3 1013.3,404.3 1020.0,404.3 1026.7,404.4 1033.3,404.3 1040.0,404.4 1046.7,404.3 1053.3,404.1 1060.0,404.4 1066.7,404.3 1073.3,404.4 1080.0,404.4 1086.7,404.4 1093.3,404.4 1100.0,404.4 1106.7,404.4 1113.3,404.4 1120.0,404.4 1126.7,404.4 1133.3,404.4 1140.0,404.4" fill="none" stroke="#3498db" stroke-width="4" stroke-linecap="round" stroke-linejoin="round" />
<polyline points="60.0,394.8 66.7,387.3 73.4,401.1 80.1,400.2 86.7,401.1 93.4,394.3 100.1,393.8 106.8,395.2 113.5,398.6 120.1,396.8 126.8,388.9 133.5,390.0 140.2,390.5 146.9,394.6 153.6,399.0 160.2,392.8 166.9,389.8 173.6,398.9 180.3,400.0 187.0,400.1 193.7,398.3 200.3,395.7 207.0,395.9 213.7,398.5 220.4,397.3 227.1,388.8 233.7,382.0 240.4,389.3 247.1,389.1 253.8,383.9 260.5,387.6 267.2,390.5 273.9,388.1 280.5,395.5 287.2,399.2 293.9,399.2 300.6,394.1 307.3,391.9 314.0,391.4 320.6,391.3 327.3,393.6 334.0,395.9 340.7,388.8 347.4,399.4 354.0,400.0 360.7,400.0 367.4,400.0 374.1,399.2 380.8,394.5 387.5,394.8 394.1,385.8 400.8,371.2 407.5,367.5 414.2,390.5 420.9,399.0 427.6,399.8 434.3,393.3 440.9,375.6 447.6,370.0 454.3,395.4 461.0,395.8 467.7,389.4 474.3,376.3 481.0,381.5 487.7,393.2 494.4,396.8 501.1,396.0 507.8,391.8 514.4,383.1 521.1,361.4 527.8,386.6 534.5,398.1 541.2,401.3 547.9,401.3 554.6,400.8 561.2,401.3 567.9,401.3 574.6,400.9 581.3,389.2 588.0,385.1 594.6,399.4 601.3,387.6 608.0,390.5 614.7,384.1 621.4,365.9 628.1,344.5 634.7,320.0 641.4,322.0 648.1,348.8 654.8,390.8 661.5,401.6 668.2,403.6 674.8,403.6 681.5,403.6 688.2,403.6 694.9,403.6 701.6,403.6 708.2,403.6 714.9,403.6 721.6,403.9 728.3,404.5 735.0,404.5 741.7,404.5 748.4,404.5 755.0,404.5 761.7,404.5 768.4,404.5 775.1,404.5 781.8,404.5 788.5,404.5 795.1,404.5 801.8,404.5 808.5,404.5 815.2,404.5 821.9,404.5 828.5,404.5 835.2,404.5 841.9,404.5 848.6,404.5" fill="none" stroke="#2ecc71" stroke-width="2" stroke-linecap="round" stroke-linejoin="round" />
<polyline points="60.0,244.2 62.2,244.2 64.3,243.7 66.5,242.0 68.6,234.5 70.8,174.5 72.9,80.2 75.1,77.2 77.2,73.5 79.4,74.4 81.6,81.3 83.7,80.1 85.9,84.8 88.0,81.6 90.2,80.7 92.3,86.0 94.5,82.5 96.7,81.6 98.8,86.9 101.0,83.9 103.1,82.4 105.3,88.1 107.4,84.2 109.6,85.1 111.7,90.2 113.9,81.3 116.0,82.2 118.2,87.1 120.4,79.7 122.5,86.0 124.7,90.5 126.8,84.0 129.0,84.3 131.1,89.9 133.3,85.3 135.5,88.3 137.6,90.3 139.8,83.5 141.9,90.0 144.1,90.3 146.2,85.3 148.4,90.3 150.6,90.6 152.7,88.5 154.9,253.6 157.0,91.6 159.2,81.9 161.3,82.0 163.5,90.1 165.6,87.2 167.8,87.2 169.9,88.7 172.1,87.6 174.3,89.7 176.4,89.0 178.6,88.2 180.7,90.5 182.9,88.8 185.0,82.7 187.2,90.9 189.4,86.7 191.5,85.2 193.7,90.4 195.8,89.3 198.0,185.4 200.1,348.4 202.3,386.4 204.5,395.0 206.6,393.6 208.8,394.7 210.9,396.0 213.1,394.4 215.2,394.4 217.4,394.3 219.5,394.5 221.7,394.3 223.9,394.6 226.0,395.5 228.2,392.7 230.3,392.5 232.5,398.4 234.6,396.8 236.8,397.5 238.9,397.2 241.1,396.1 243.3,396.6 245.4,396.7 247.6,394.7 249.7,396.5 251.9,396.7 254.0,396.7 256.2,396.2 258.4,395.2 260.5,396.4 262.7,392.5 264.8,392.0 267.0,395.0 269.1,391.5 271.3,390.9 273.4,394.2 275.6,389.9 277.8,390.8 279.9,393.1 282.1,389.9 284.2,391.8 286.4,394.6 288.5,390.4 290.7,392.0 292.9,394.3 295.0,390.5 297.2,390.8 299.3,395.8 301.5,391.0 303.6,393.5 305.8,396.7 308.0,390.5 310.1,393.6 312.3,398.3 314.4,388.2 316.6,393.8 318.7,396.5 320.9,389.0 323.0,393.1 325.2,394.6 327.3,387.5 329.5,393.2 331.7,392.9 333.8,387.0 336.0,393.6 338.1,397.6 340.3,402.7 342.4,403.6 344.6,403.6 346.8,403.6" fill="none" stroke="#9b59b6" stroke-width="2" stroke-linecap="round" stroke-linejoin="round" />
<polyline points="60.0,393.5 67.1,84.9 73.5,86.0 79.9,89.7 90.7,90.4 99.0,91.5 107.5,91.1 113.9,91.1 124.6,92.9 133.1,91.5 141.8,91.9 154.6,94.4 165.0,92.9 173.5,92.9 180.1,93.3 188.4,89.7 194.8,390.3 203.3,391.1 209.7,394.9 216.1,394.9 222.5,394.7 231.2,397.1 239.5,396.9 245.9,396.8 254.4,393.1 260.8,397.3 269.5,396.4 277.8,397.1 284.2,397.3 292.7,397.0 299.1,397.9 307.9,396.7 316.2,396.4 322.5,393.0 328.9,397.2 337.4,403.7 346.2,403.6 354.5,403.7 363.0,403.7 371.7,403.7 380.0,403.6 386.4,403.6 392.8,403.6 399.2,403.6 405.6,403.6 411.9,403.7 420.5,403.6 429.0,403.7 435.9,403.6 443.9,403.6 450.3,403.6 456.6,403.7 465.2,403.6 473.9,403.6 482.2,403.6 484.3,404.9 486.7,404.9 488.6,404.9 490.7,405.0 492.8,404.9 495.0,404.8 497.1,404.8 499.7,404.8 501.4,404.9 503.5,404.8 505.6,404.8 507.7,404.8 509.9,404.8 512.2,404.8 514.1,404.8 516.3,404.8 518.4,404.8 520.5,404.8 522.6,404.8 525.0,404.8 526.9,404.8 529.0,404.8 531.2,404.8 533.3,404.8 535.4,404.8 537.6,404.8 539.7,404.8 541.8,404.8 543.9,404.8 546.1,404.8 548.2,404.8 550.5,404.8 552.4,404.8 554.6,404.8 556.7,404.8 558.8,404.8 561.0,404.8 563.3,404.9 565.2,404.8 567.3,404.8 569.5,404.8 571.6,404.8 573.7,404.8 576.1,404.8 578.0,404.8 580.1,404.8 582.2,404.8 584.4,404.8 586.5,404.9 588.8,404.8 590.8,404.8 592.9,404.8 595.0,404.9 597.1,404.8 599.3,404.8 601.6,404.8 603.5,404.8 605.7,404.8 607.8,404.8 609.9,404.9 612.0,405.0 727.0,405.0 729.4,405.0 857.1,405.0 859.0,405.0 935.6,405.0 937.7,405.0 1138.1,405.0 1140.0,405.0" fill="none" stroke="#f39c12" stroke-width="3" stroke-linecap="round" stroke-linejoin="round" />
<!-- Legend -->
<line x1="60" y1="476" x2="92" y2="476" stroke="#3498db" stroke-width="4" />
<text x="102" y="482" fill="#aaa" font-size="22">★ Quick</text>
<line x1="420" y1="476" x2="452" y2="476" stroke="#2ecc71" stroke-width="2" />
<text x="462" y="482" fill="#aaa" font-size="22">Mixed</text>
<line x1="780" y1="476" x2="812" y2="476" stroke="#9b59b6" stroke-width="2" />
<text x="822" y="482" fill="#aaa" font-size="22">My Drying Time - 20min…</text>
<line x1="60" y1="510" x2="92" y2="510" stroke="#f39c12" stroke-width="3" />
<text x="102" y="516" fill="#aaa" font-size="22">This cycle (actual)</text>
</svg>