<svg xmlns="http://www.w3.org/2000/svg" viewBox="0 0 1200 540" style="background-color: #1c1c1c; font-family: sans-serif;">
<rect x="0" y="0" width="1200" height="450" fill="#1c1c1c" />
<line x1="60" y1="405" x2="1140" y2="405" stroke="#444" stroke-width="2" />
<line x1="60" y1="45" x2="60" y2="405" stroke="#444" stroke-width="2" />
<text x="60" y="30" fill="#aaa" font-size="20">1770W</text>
<text x="1140" y="440" fill="#aaa" font-size="20" text-anchor="middle">76m</text>
<text x="600" y="30" fill="#fff" font-size="26" text-anchor="middle" font-weight="bold">Profile Comparison: Mixed</text>
<polygon points="60.0,363.2 67.3,363.2 74.5,394.1 81.7,397.1 89.0,397.1 96.2,389.3 103.5,385.0 110.7,391.2 118.0,391.2 125.2,391.2 132.5,385.8 139.7,381.2 147.0,385.3 154.2,385.8 161.5,392.3 168.7,391.6 176.0,387.9 183.2,391.1 190.5,392.3 197.7,392.3 205.0,392.3 212.2,390.3 219.5,382.0 226.7,392.3 233.9,392.3 241.2,385.7 248.4,355.0 255.7,341.9 262.9,343.8 270.2,344.1 277.4,344.2 284.7,344.4 291.9,344.7 299.2,351.2 306.4,393.6 313.7,393.6 320.9,392.6 328.2,386.8 335.4,384.9 342.7,384.2 349.9,384.3 357.2,387.4 364.4,383.0 371.6,382.0 378.9,385.9 386.2,388.7 393.4,387.3 400.6,385.6 407.9,386.7 415.1,388.0 422.4,386.7 429.6,376.5 436.9,333.4 444.1,345.1 451.4,385.5 458.6,387.6 465.9,388.6 473.1,383.2 480.4,373.7 487.6,334.2 494.9,385.5 502.1,388.6 509.4,373.6 516.6,361.5 523.8,350.1 531.1,384.9 538.4,392.1 545.6,392.1 552.8,390.6 560.1,372.9 567.4,335.5 574.6,346.5 581.8,388.9 589.1,394.8 596.3,394.8 603.6,394.8 610.8,394.8 618.1,394.8 625.3,393.5 632.6,382.6 639.8,371.7 647.1,394.2 654.3,384.5 661.6,384.1 668.8,381.9 676.1,364.1 683.3,340.4 690.6,316.2 697.8,300.1 705.1,299.7 712.3,342.9 719.5,390.0 726.8,398.2 734.0,403.6 741.3,403.6 748.5,403.6 755.8,403.6 763.0,403.6 770.3,403.6 777.5,403.6 784.8,403.6 792.0,403.7 799.3,403.7 806.5,403.7 813.8,403.7 821.0,403.7 828.3,403.7 835.5,403.7 842.8,403.7 850.0,403.7 857.3,403.7 864.5,403.7 871.7,403.7 879.0,403.7 886.3,403.6 893.5,403.6 900.7,403.6 908.0,403.6 915.2,403.6 922.5,403.6 929.7,403.6 929.7,404.9 922.5,404.8 915.2,404.8 908.0,404.8 900.7,404.8 893.5,404.8 886.3,404.8 879.0,404.8 871.7,404.8 864.5,404.8 857.3,404.8 850.0,404.9 842.8,404.9 835.5,404.9 828.3,404.8 821.0,404.8 813.8,404.8 806.5,404.9 799.3,404.9 792.0,404.7 784.8,403.7 777.5,403.7 770.3,403.7 763.0,403.7 755.8,403.7 748.5,403.7 741.3,403.7 734.0,403.7 726.8,403.6 719.5,403.6 712.3,404.6 705.1,404.8 697.8,404.8 690.6,404.8 683.3,404.8 676.1,404.8 668.8,404.8 661.6,404.8 654.3,404.8 647.1,404.8 639.8,404.8 632.6,404.8 625.3,405.0 618.1,404.9 610.8,403.6 603.6,403.6 596.3,403.6 589.1,403.6 581.8,403.6 574.6,403.6 567.4,403.6 560.1,403.6 552.8,403.6 545.6,403.6 538.4,403.6 531.1,403.6 523.8,403.6 516.6,403.6 509.4,403.6 502.1,403.7 494.9,403.6 487.6,403.6 480.4,403.7 473.1,403.7 465.9,403.7 458.6,403.6 451.4,398.7 444.1,397.2 436.9,397.2 429.6,397.2 422.4,397.2 415.1,397.7 407.9,403.6 400.6,403.6 393.4,403.6 386.2,403.6 378.9,403.6 371.6,398.4 364.4,398.3 357.2,401.3 349.9,397.2 342.7,397.2 335.4,397.2 328.2,397.2 320.9,400.6 313.7,403.6 306.4,403.5 299.2,401.0 291.9,399.1 284.7,399.1 277.4,399.1 270.2,399.1 262.9,403.1 255.7,399.1 248.4,399.1 241.2,400.9 233.9,403.5 226.7,403.4 219.5,400.1 212.2,400.1 205.0,403.6 197.7,403.6 190.5,403.6 183.2,400.9 176.0,397.3 168.7,403.0 161.5,403.6 154.2,396.0 147.0,395.2 139.7,394.0 132.5,394.0 125.2,403.6 118.0,403.5 110.7,398.3 103.5,398.3 96.2,398.3 89.0,403.2 81.7,403.2 74.5,403.5 67.3,403.4 60.0,402.5" fill="#3498db" fill-opacity="0.2" stroke="none" />
<polyline points="60.0,395.2 67.3,387.4 74.5,400.1 81.7,400.2 89.0,401.0 96.2,394.0 103.5,393.5 110.7,395.0 118.0,396.3 125.2,396.0 132.5,389.7 139.7,388.5 147.0,391.3 154.2,391.9 161.5,399.7 168.7,396.1 176.0,391.4 183.2,396.2 190.5,401.1 197.7,401.1 205.0,400.9 212.2,394.2 219.5,393.1 226.7,398.8 233.9,399.1 241.2,391.2 248.4,383.4 255.7,385.5 262.9,390.8 270.2,387.0 277.4,384.8 284.7,390.0 291.9,390.1 299.2,391.4 306.4,398.0 313.7,398.2 320.9,397.2 328.2,391.0 335.4,392.0 342.7,389.8 349.9,390.7 357.2,395.1 364.4,393.7 371.6,392.2 378.9,398.2 386.2,398.6 393.4,398.4 400.6,398.2 407.9,397.1 415.1,394.8 422.4,393.3 429.6,384.5 436.9,368.0 444.1,372.0 451.4,392.2 458.6,398.1 465.9,397.9 473.1,389.9 480.4,381.4 487.6,375.5 494.9,397.2 502.1,398.0 509.4,388.5 516.6,374.6 523.8,378.4 531.1,393.3 538.4,396.9 545.6,396.9 552.8,394.5 560.1,383.6 567.4,365.3 574.6,373.7 581.8,397.4 589.1,401.1 596.3,401.2 603.6,400.9 610.8,401.1 618.1,401.1 625.3,400.9 632.6,392.1 639.8,381.1 647.1,399.0 654.3,392.8 661.6,391.3 668.8,389.8 676.1,376.3 683.3,356.0 690.6,335.2 697.8,321.0 705.1,327.6 712.3,373.5 719.5,397.0 726.8,401.9 734.0,403.6 741.3,403.6 748.5,403.6 755.8,403.6 763.0,403.6 770.3,403.6 777.5,403.6 784.8,403.6 792.0,404.1 799.3,404.6 806.5,404.6 813.8,404.6 821.0,404.5 828.3,404.5 835.5,404.6 842.8,404.6 850.0,404.6 857.3,404.6 864.5,404.6 871.7,404.6 879.0,404.6 886.3,404.6 893.5,404.5 900.7,404.5 908.0,404.5 915.2,404.5 922.5,404.5 929.7,404.5" fill="none" stroke="#3498db" stroke-width="4" stroke-linecap="round" stroke-linejoin="round" />
<polyline points="60.0,180.3 62.4,84.0 64.7,87.9 67.1,87.8 69.5,87.8 71.8,87.8 74.2,88.1 76.6,88.2 78.9,85.2 81.3,85.8 83.7,89.5 86.1,89.1 88.4,89.2 90.8,89.5 93.2,88.7 95.5,89.1 97.9,89.7 100.3,88.9 102.6,88.8 105.0,89.3 107.4,88.8 109.7,89.2 112.1,89.6 114.5,89.3 116.8,89.6 119.2,90.0 121.6,90.5 124.0,90.6 126.3,90.3 128.7,91.0 131.1,91.6 133.4,90.7 135.8,91.0 138.2,90.3 140.5,89.9 142.9,192.6 145.3,192.7 147.6,192.6 150.0,192.6 152.4,192.1 154.8,191.7 157.1,191.8 159.5,192.1 161.8,191.9 164.2,190.9 166.6,191.8 169.0,192.1 171.3,186.7 173.7,190.0 176.1,190.5 178.4,185.4 180.8,189.8 183.2,190.9 185.5,187.3 187.9,189.8 190.3,189.4 192.6,186.7 195.0,190.1 197.4,189.2 199.8,187.3 202.1,192.0 204.5,191.5 206.9,185.7 209.2,188.3 211.6,190.8 214.0,186.9 216.3,192.9 218.7,191.4 221.1,187.1 223.4,193.6 225.8,194.2 228.2,186.8 230.5,194.3 232.9,194.9 235.3,189.9 237.7,192.3 240.0,189.8 242.4,187.3 244.7,195.3 247.1,193.0 249.5,188.2 251.9,202.0 254.2,196.7 256.6,187.5 259.0,194.6 261.3,195.2 263.7,187.7 266.1,191.5 268.4,192.2 270.8,187.1 273.2,195.0 275.5,201.5 277.9,292.3 280.3,297.3 282.7,296.0 285.0,271.5 287.4,193.2 289.8,190.2 292.1,189.2 294.5,193.7 296.9,192.6 299.2,189.5 301.6,194.9 304.0,192.2 306.4,191.1 308.7,194.6 311.1,193.9 313.4,258.0 315.8,367.2 318.2,395.3 320.6,392.5 322.9,396.0 325.3,398.3 327.7,397.3 330.0,398.0 332.4,398.1 334.8,398.9 337.1,397.9 339.5,398.5 341.9,398.7 344.2,396.7 346.6,396.6 349.0,399.7 351.3,398.1 353.7,399.3 356.1,399.5 358.4,398.5 360.8,399.3 363.2,396.4 365.6,395.5 367.9,398.9 370.3,398.8 372.7,396.5 375.0,399.6 377.4,400.2 379.8,400.0 382.1,399.3 384.5,399.1 386.9,399.4 389.3,400.0 391.6,400.1 394.0,399.6 396.3,400.1 398.7,399.9 401.1,396.3 403.5,399.6 405.8,400.3 408.2,400.1 410.6,400.5 412.9,400.1 415.3,399.9 417.7,400.5 420.0,393.8 422.4,397.5 424.8,400.2 427.1,399.8 429.5,399.8 431.9,400.4 434.3,399.9 436.6,399.9 439.0,399.1 441.3,399.5 443.7,399.6 446.1,400.3 448.5,399.7 450.8,399.5 453.2,400.3 455.6,399.8 457.9,395.2 460.3,400.2 462.7,400.1 465.0,400.1 467.4,399.5 469.8,403.5 472.2,404.1 474.5,404.1 476.9,404.1 479.3,404.1 481.6,404.1 484.0,404.1 486.4,404.1 488.7,404.1" fill="none" stroke="#2ecc71" stroke-width="2" stroke-linecap="round" stroke-linejoin="round" />
<polyline points="60.0,366.7 67.4,149.4 74.8,133.2 82.2,128.2 89.6,132.6 97.0,136.9 104.4,167.9 111.8,208.8 119.2,161.3 126.6,133.5 134.0,148.2 141.4,164.9 148.8,138.1 156.2,137.7 163.6,136.8 171.0,165.6 178.4,194.0 185.7,139.5 193.1,145.4 200.5,197.5 208.0,362.7 215.4,369.0 222.7,370.4 230.1,368.4 237.5,320.7 244.9,372.8 252.3,376.1 259.7,376.7 267.1,378.9 274.5,379.6 281.9,376.9 289.3,380.0 296.7,383.6 304.1,384.7 311.5,385.6 318.9,386.7 326.3,387.8 333.7,388.8 341.1,390.0 348.5,391.1 355.9,392.2 363.3,393.2 370.7,394.4 378.1,395.4 385.5,396.5 392.9,397.6 400.3,397.9 407.7,398.1 415.1,398.1 422.5,398.4 429.9,398.3 437.3,397.9 444.7,398.0 452.1,399.0 459.5,399.0 466.8,399.0 474.2,399.5 481.6,399.6 489.0,400.0 496.4,400.0 503.8,400.7 511.2,400.8 518.6,400.8 526.0,400.8 533.4,401.6 540.8,401.2 548.2,401.6 555.6,401.7 563.0,401.7 570.4,401.7 577.8,401.7 585.2,401.8 592.6,402.0 600.0,402.1 607.4,402.2 614.8,402.9 622.2,402.9 629.6,402.9 637.0,403.0 644.4,403.0 651.8,403.0 659.2,403.6 666.6,403.6 674.0,403.6 681.4,403.6 688.8,403.6 696.2,403.6 703.6,403.6 711.0,403.7 718.4,403.6 725.8,403.6 733.2,403.6 740.5,403.7 747.9,403.6 755.3,403.6 762.7,403.6 770.1,403.6 777.5,403.6 784.9,403.6 792.3,402.4 799.7,403.1 807.1,403.6 814.5,403.4 821.9,403.6 829.3,403.6 836.7,403.6 844.1,403.6 851.5,403.6 858.9,403.6 866.3,403.6 873.7,403.6 881.1,403.6 888.5,403.6 895.9,403.6 903.3,403.7 910.7,403.6 918.1,403.6 925.5,403.6 932.9,402.9 940.3,403.6 947.7,403.6 955.1,403.6 962.5,403.5 969.9,401.5 977.3,403.3 984.6,403.6 992.0,403.6 999.5,403.6 1006.9,403.6 1014.3,403.6 1021.6,403.6 1029.0,403.7 1036.4,403.6 1043.8,403.6 1051.2,403.6 1058.6,403.6 1066.0,403.7 1073.4,404.1 1080.8,404.2 1088.2,404.3 1095.6,404.2 1103.0,404.2 1110.4,404.2 1117.8,404.2 1125.2,404.2 1132.6,404.2 1140.0,404.2" fill="none" stroke="#9b59b6" stroke-width="2" stroke-linecap="round" stroke-linejoin="round" />
<polyline points="60.0,402.5 67.3,403.4 76.4,401.3 83.5,402.3 90.5,403.5 99.9,392.1 107.0,403.5 114.0,403.5 121.0,393.1 128.1,403.6 137.7,395.0 146.9,380.3 153.9,382.1 163.3,386.1 170.3,385.7 177.4,403.5 186.8,388.9 194.1,403.6 203.2,394.1 210.3,403.6 217.3,391.1 224.3,388.7 233.7,382.2 240.8,386.3 247.8,385.9 257.2,377.9 264.3,391.1 273.6,382.8 280.7,394.6 287.7,382.5 294.8,388.1 301.8,380.8 311.2,387.8 320.9,383.8 330.0,381.8 337.0,391.5 346.4,386.2 355.8,386.8 363.1,386.2 372.3,396.5 379.3,380.9 386.3,382.2 393.4,383.7 402.8,379.7 409.8,383.0 419.5,384.1 428.6,385.3 435.6,370.1 445.0,340.8 452.1,400.4 459.1,402.3 466.2,393.9 475.8,390.1 484.9,366.6 494.3,372.4 501.4,400.5 510.8,400.4 518.1,374.8 527.2,371.5 536.6,381.9 546.2,396.2 555.4,375.4 564.8,347.1 571.8,395.9 581.2,382.1 588.5,394.8 597.6,393.2 604.7,385.4 614.1,380.1 623.5,378.8 630.8,376.6 639.9,387.3 649.3,375.1 656.3,396.3 665.7,395.7 673.0,396.9 682.2,394.8 689.2,395.9 698.6,380.0 705.6,360.3 715.3,327.7 724.4,311.3 731.5,312.4 740.9,395.5 750.2,403.6 757.5,403.6 766.7,403.6 773.7,403.6 783.1,403.6 790.2,403.6 799.8,403.6 808.9,403.7 816.0,403.6 825.4,403.6 832.4,403.6 839.5,403.6 848.9,403.6 856.5,403.7 865.3,403.6 872.3,404.9 874.7,404.9 877.0,404.9 879.4,404.9 881.7,404.9 884.3,404.8 886.4,404.8 888.8,404.8 891.1,404.8 893.5,404.8 895.8,404.9 898.4,404.8 900.5,404.8 902.9,404.8 905.2,404.8 907.6,404.8 909.9,404.8 912.5,404.8 914.6,404.8 917.0,404.8 919.3,404.8 921.7,404.8 924.0,404.8 926.6,404.8 928.7,404.8" fill="none" stroke="#f39c12" stroke-width="3" stroke-linecap="round" stroke-linejoin="round" />
<!-- Legend -->
<line x1="60" y1="476" x2="92" y2="476" stroke="#3498db" stroke-width="4" />
<text x="102" y="482" fill="#aaa" font-size="22">★ Mixed</text>
<line x1="420" y1="476" x2="452" y2="476" stroke="#2ecc71" stroke-width="2" />
<text x="462" y="482" fill="#aaa" font-size="22">My Drying Time - 20min…</text>
<line x1="780" y1="476" x2="812" y2="476" stroke="#9b59b6" stroke-width="2" />
<text x="822" y="482" fill="#aaa" font-size="22">Quick</text>
<line x1="60" y1="510" x2="92" y2="510" stroke="#f39c12" stroke-width="3" />
<text x="102" y="516" fill="#aaa" font-size="22">This cycle (actual)</text>
</svg>