<svg xmlns="http://www.w3.org/2000/svg" viewBox="0 0 1200 540" style="background-color: #1c1c1c; font-family: sans-serif;">
<rect x="0" y="0" width="1200" height="450" fill="#1c1c1c" />
<line x1="60" y1="405" x2="1140" y2="405" stroke="#444" stroke-width="2" />
<line x1="60" y1="45" x2="60" y2="405" stroke="#444" stroke-width="2" />
<text x="60" y="30" fill="#aaa" font-size="20">1770W</text>
<text x="1140" y="440" fill="#aaa" font-size="20" text-anchor="middle">80m</text>
<text x="600" y="30" fill="#fff" font-size="26" text-anchor="middle" font-weight="bold">Profile Comparison: Mixed</text>
<polygon points="60.0,363.2 67.0,363.2 74.1,397.9 81.1,397.9 88.1,397.7 95.2,389.8 102.2,389.8 109.3,390.5 116.3,391.6 123.3,391.6 130.3,384.9 137.4,387.4 144.4,386.9 151.5,388.2 158.5,393.0 165.5,388.4 172.6,381.4 179.6,393.0 186.6,393.0 193.7,393.0 200.7,393.0 207.8,392.4 214.8,392.4 221.8,393.0 228.9,393.0 235.9,383.7 242.9,354.0 250.0,342.4 257.0,343.8 264.0,344.2 271.1,344.2 278.1,344.5 285.1,344.8 292.2,367.1 299.2,390.6 306.3,390.6 313.3,388.8 320.3,386.8 327.4,383.1 334.4,386.8 341.4,389.6 348.5,389.6 355.5,369.6 362.5,388.6 369.6,390.0 376.6,390.0 383.6,390.0 390.7,390.0 397.7,388.0 404.8,390.0 411.8,376.1 418.8,347.3 425.9,333.4 432.9,384.8 439.9,392.5 447.0,392.5 454.0,387.8 461.1,364.6 468.1,349.7 475.1,382.6 482.1,382.6 489.2,381.4 496.2,354.7 503.3,368.6 510.3,382.3 517.3,382.3 524.4,382.3 531.4,382.3 538.4,376.7 545.5,329.0 552.5,375.0 559.5,394.2 566.6,397.3 573.6,397.3 580.7,397.3 587.7,397.3 594.7,395.6 601.7,395.1 608.8,376.3 615.8,374.1 622.9,388.0 629.9,381.4 636.9,385.8 644.0,374.5 651.0,353.5 658.0,326.7 665.1,295.3 672.1,295.3 679.2,312.9 686.2,381.7 693.2,398.0 700.3,403.6 707.3,403.6 714.3,403.6 721.4,403.6 728.4,403.6 735.4,403.6 742.5,403.6 749.5,403.6 756.5,403.6 763.6,403.7 770.6,403.7 777.7,403.7 784.7,403.7 791.7,403.7 798.8,403.7 805.8,403.7 812.8,403.7 819.9,403.7 826.9,403.7 833.9,403.6 841.0,403.6 848.0,403.6 855.0,403.6 862.1,403.6 869.1,403.6 876.2,403.6 883.2,403.6 890.2,403.6 890.2,404.9 883.2,404.8 876.2,404.8 869.1,404.8 862.1,404.8 855.0,404.8 848.0,404.9 841.0,404.8 833.9,404.8 826.9,404.8 819.9,404.8 812.8,404.9 805.8,404.8 798.8,404.8 791.7,404.8 784.7,404.8 777.7,404.9 770.6,404.9 763.6,404.9 756.5,404.4 749.5,403.7 742.5,403.7 735.4,403.7 728.4,403.7 721.4,403.7 714.3,403.7 707.3,403.7 700.3,403.7 693.2,403.7 686.2,403.7 679.2,404.7 672.1,404.8 665.1,404.8 658.0,404.8 651.0,404.8 644.0,404.8 636.9,404.8 629.9,404.9 622.9,404.8 615.8,404.8 608.8,404.8 601.7,404.8 594.7,404.9 587.7,404.2 580.7,403.6 573.6,403.6 566.6,403.6 559.5,403.6 552.5,403.6 545.5,403.6 538.4,403.7 531.4,403.6 524.4,403.6 517.3,403.6 510.3,403.6 503.3,403.6 496.2,403.6 489.2,403.6 482.1,403.6 475.1,403.6 468.1,403.6 461.1,403.6 454.0,403.6 447.0,403.6 439.9,403.6 432.9,403.6 425.9,403.6 418.8,403.6 411.8,403.6 404.8,403.6 397.7,403.6 390.7,403.6 383.6,403.6 376.6,403.7 369.6,403.6 362.5,403.7 355.5,403.6 348.5,403.6 341.4,403.6 334.4,403.6 327.4,403.6 320.3,403.6 313.3,403.6 306.3,403.6 299.2,403.6 292.2,403.6 285.1,398.5 278.1,399.2 271.1,398.5 264.0,398.5 257.0,399.5 250.0,403.5 242.9,398.5 235.9,398.5 228.9,402.1 221.8,403.5 214.8,400.4 207.8,400.4 200.7,402.6 193.7,403.5 186.6,403.6 179.6,403.5 172.6,394.2 165.5,394.4 158.5,403.5 151.5,398.8 144.4,394.1 137.4,394.1 130.3,394.1 123.3,403.6 116.3,403.6 109.3,398.8 102.2,398.8 95.2,398.8 88.1,403.6 81.1,402.9 74.1,403.5 67.0,401.5 60.0,402.3" fill="#3498db" fill-opacity="0.2" stroke="none" />
<polyline points="60.0,394.8 67.0,387.3 74.1,401.1 81.1,400.2 88.1,401.1 95.2,394.3 102.2,393.8 109.3,395.2 116.3,398.6 123.3,396.8 130.3,388.8 137.4,390.0 144.4,390.5 151.5,394.6 158.5,399.0 165.5,392.8 172.6,389.8 179.6,398.9 186.6,400.0 193.7,400.1 200.7,398.3 207.8,395.7 214.8,395.9 221.8,398.5 228.9,397.3 235.9,388.8 242.9,382.0 250.0,389.3 257.0,389.1 264.0,383.8 271.1,387.6 278.1,390.5 285.1,388.0 292.2,395.4 299.2,399.2 306.3,399.2 313.3,394.1 320.3,391.9 327.4,391.3 334.4,391.3 341.4,393.6 348.5,395.9 355.5,388.8 362.5,399.4 369.6,400.0 376.6,400.0 383.6,400.0 390.7,399.2 397.7,394.5 404.8,394.8 411.8,385.8 418.8,371.2 425.9,367.5 432.9,390.5 439.9,399.0 447.0,399.8 454.0,393.3 461.1,375.6 468.1,370.0 475.1,395.4 482.1,395.8 489.2,389.4 496.2,376.3 503.3,381.5 510.3,393.2 517.3,396.7 524.4,396.0 531.4,391.7 538.4,383.1 545.5,361.4 552.5,386.5 559.5,398.1 566.6,401.3 573.6,401.3 580.7,400.8 587.7,401.3 594.7,401.3 601.7,400.9 608.8,389.2 615.8,385.1 622.9,399.4 629.9,387.6 636.9,390.4 644.0,384.1 651.0,365.9 658.0,344.5 665.1,319.9 672.1,322.0 679.2,348.7 686.2,390.7 693.2,401.6 700.3,403.6 707.3,403.6 714.3,403.6 721.4,403.6 728.4,403.6 735.4,403.6 742.5,403.6 749.5,403.6 756.5,403.9 763.6,404.5 770.6,404.5 777.7,404.5 784.7,404.5 791.7,404.5 798.8,404.5 805.8,404.5 812.8,404.5 819.9,404.5 826.9,404.5 833.9,404.5 841.0,404.5 848.0,404.5 855.0,404.5 862.1,404.5 869.1,404.5 876.2,404.5 883.2,404.5 890.2,404.5" fill="none" stroke="#3498db" stroke-width="4" stroke-linecap="round" stroke-linejoin="round" />
<polyline points="60.0,180.3 62.3,84.0 64.5,87.9 66.8,87.8 69.1,87.8 71.3,87.8 73.6,88.1 75.8,88.2 78.1,85.2 80.3,85.8 82.6,89.5 84.9,89.1 87.1,89.2 89.4,89.5 91.6,88.7 93.9,89.1 96.2,89.7 98.4,88.9 100.7,88.8 103.0,89.3 105.2,88.8 107.5,89.2 109.8,89.6 112.0,89.3 114.3,89.6 116.5,90.0 118.8,90.5 121.0,90.6 123.3,90.3 125.6,91.0 127.8,91.6 130.1,90.7 132.3,91.0 134.6,90.3 136.9,89.9 139.1,192.6 141.4,192.7 143.7,192.6 145.9,192.6 148.2,192.1 150.5,191.7 152.7,191.8 155.0,192.1 157.2,191.9 159.5,190.9 161.7,191.8 164.0,192.1 166.3,186.7 168.5,190.0 170.8,190.5 173.0,185.4 175.3,189.8 177.6,190.9 179.8,187.3 182.1,189.8 184.4,189.4 186.6,186.7 188.9,190.1 191.2,189.2 193.4,187.3 195.7,192.0 197.9,191.5 200.2,185.7 202.4,188.3 204.7,190.8 207.0,186.9 209.2,192.9 211.5,191.4 213.8,187.1 216.0,193.6 218.3,194.2 220.5,186.8 222.8,194.3 225.1,194.9 227.3,189.9 229.6,192.3 231.8,189.8 234.1,187.3 236.4,195.3 238.6,193.0 240.9,188.2 243.1,202.0 245.4,196.7 247.7,187.5 249.9,194.6 252.2,195.2 254.5,187.7 256.7,191.5 259.0,192.2 261.2,187.1 263.5,195.0 265.8,201.5 268.0,292.3 270.3,297.3 272.5,296.0 274.8,271.5 277.1,193.2 279.3,190.2 281.6,189.2 283.8,193.7 286.1,192.6 288.4,189.5 290.6,194.9 292.9,192.2 295.2,191.1 297.4,194.6 299.7,193.9 301.9,258.0 304.2,367.2 306.5,395.3 308.7,392.5 311.0,396.0 313.2,398.3 315.5,397.3 317.8,398.0 320.0,398.1 322.3,398.9 324.5,397.9 326.8,398.5 329.1,398.7 331.3,396.7 333.6,396.6 335.9,399.7 338.1,398.1 340.4,399.3 342.6,399.5 344.9,398.5 347.2,399.3 349.4,396.4 351.7,395.5 353.9,398.9 356.2,398.8 358.5,396.5 360.7,399.6 363.0,400.2 365.2,400.0 367.5,399.3 369.8,399.1 372.0,399.4 374.3,400.0 376.6,400.1 378.8,399.6 381.1,400.1 383.3,399.9 385.6,396.3 387.9,399.6 390.1,400.3 392.4,400.1 394.6,400.5 396.9,400.1 399.2,399.9 401.4,400.5 403.7,393.8 405.9,397.5 408.2,400.2 410.5,399.8 412.7,399.8 415.0,400.4 417.3,399.9 419.5,399.9 421.8,399.1 424.0,399.5 426.3,399.6 428.6,400.3 430.8,399.7 433.1,399.5 435.3,400.3 437.6,399.8 439.8,395.2 442.1,400.2 444.4,400.1 446.6,400.1 448.9,399.5 451.2,403.5 453.4,404.1 455.7,404.1 458.0,404.1 460.2,404.1 462.5,404.1 464.7,404.1 467.0,404.1 469.3,404.1" fill="none" stroke="#2ecc71" stroke-width="2" stroke-linecap="round" stroke-linejoin="round" />
<polyline points="60.0,366.7 67.1,149.4 74.1,133.2 81.2,128.2 88.2,132.6 95.3,136.9 102.4,167.9 109.4,208.8 116.5,161.3 123.6,133.5 130.6,148.2 137.7,164.9 144.7,138.1 151.8,137.7 158.9,136.8 165.9,165.6 173.0,194.0 180.0,139.5 187.1,145.4 194.2,197.5 201.2,362.7 208.3,369.0 215.4,370.4 222.4,368.4 229.5,320.7 236.5,372.8 243.6,376.1 250.7,376.7 257.7,378.9 264.8,379.6 271.8,376.9 278.9,380.0 286.0,383.6 293.0,384.7 300.1,385.6 307.2,386.7 314.2,387.8 321.3,388.8 328.3,390.0 335.4,391.1 342.4,392.2 349.5,393.2 356.6,394.4 363.6,395.4 370.7,396.5 377.7,397.6 384.8,397.9 391.9,398.1 398.9,398.1 406.0,398.4 413.1,398.3 420.1,397.9 427.2,398.0 434.2,399.0 441.3,399.0 448.4,399.0 455.4,399.5 462.5,399.6 469.5,400.0 476.6,400.0 483.7,400.7 490.7,400.8 497.8,400.8 504.9,400.8 511.9,401.6 519.0,401.2 526.0,401.6 533.1,401.7 540.2,401.7 547.2,401.7 554.3,401.7 561.3,401.8 568.4,402.0 575.5,402.1 582.5,402.2 589.6,402.9 596.7,402.9 603.7,402.9 610.8,403.0 617.8,403.0 624.9,403.0 632.0,403.6 639.0,403.6 646.1,403.6 653.1,403.6 660.2,403.6 667.3,403.6 674.3,403.6 681.4,403.7 688.5,403.6 695.5,403.6 702.6,403.6 709.6,403.7 716.7,403.6 723.8,403.6 730.8,403.6 737.9,403.6 744.9,403.6 752.0,403.6 759.1,402.4 766.1,403.1 773.2,403.6 780.3,403.4 787.3,403.6 794.4,403.6 801.4,403.6 808.5,403.6 815.6,403.6 822.6,403.6 829.7,403.6 836.7,403.6 843.8,403.6 850.8,403.6 857.9,403.6 865.0,403.7 872.1,403.6 879.1,403.6 886.2,403.6 893.2,402.9 900.3,403.6 907.3,403.6 914.4,403.6 921.5,403.5 928.5,401.5 935.6,403.3 942.6,403.6 949.7,403.6 956.8,403.6 963.8,403.6 970.9,403.6 978.0,403.6 985.0,403.7 992.1,403.6 999.1,403.6 1006.2,403.6 1013.3,403.6 1020.3,403.7 1027.4,404.1 1034.4,404.2 1041.5,404.3 1048.6,404.2 1055.6,404.2 1062.7,404.2 1069.8,404.2 1076.8,404.2 1083.9,404.2 1090.9,404.2" fill="none" stroke="#9b59b6" stroke-width="2" stroke-linecap="round" stroke-linejoin="round" />
<polyline points="60.0,363.2 68.7,402.4 75.5,403.5 82.2,393.9 91.2,403.6 97.9,403.6 104.6,381.6 111.3,403.6 118.0,403.6 124.8,391.5 133.7,385.0 140.7,393.1 149.4,403.6 156.1,394.4 165.1,388.0 171.8,382.8 178.6,391.1 187.5,389.6 194.3,403.6 203.2,392.6 209.9,384.6 218.9,389.0 225.6,385.1 232.3,387.7 241.3,383.0 248.3,384.9 257.0,386.1 263.7,386.6 272.7,391.7 281.6,391.9 288.6,386.0 297.3,385.4 306.3,388.9 315.5,389.1 324.2,381.5 333.2,384.5 339.9,385.5 348.9,385.3 355.8,383.1 364.6,376.7 371.3,379.8 378.0,380.8 384.7,379.0 393.7,388.9 400.4,395.5 409.6,384.3 418.4,381.1 427.3,383.6 436.5,380.3 445.3,376.5 452.0,376.7 458.7,371.4 467.7,381.5 476.8,380.3 485.6,373.3 494.6,389.0 501.3,382.7 510.2,383.3 517.2,386.3 525.9,386.4 532.7,381.8 539.4,380.9 548.3,398.6 557.8,389.2 566.3,389.6 575.2,383.0 584.4,367.8 593.2,338.0 599.9,400.5 608.9,394.6 617.8,385.4 624.8,393.2 633.5,396.4 640.2,370.0 647.0,372.4 653.7,380.2 660.4,399.8 667.1,365.2 676.1,369.9 682.8,387.8 692.0,400.5 700.7,356.5 709.7,394.6 718.9,398.9 727.6,389.2 736.6,397.6 745.8,396.7 754.5,395.5 761.3,382.8 770.2,358.9 779.2,391.2 786.1,394.4 794.9,395.4 801.6,401.1 810.6,401.2 819.5,403.6 826.5,378.5 835.2,384.4 841.9,403.6 919.9,397.3 927.1,366.5 934.0,341.7 1014.0,403.6 1021.2,403.7 1042.6,403.6 1045.8,404.9 1046.0,404.9 1048.1,404.8 1050.4,404.8 1083.6,404.8 1084.0,404.8 1086.2,404.8 1088.4,404.8 1090.7,404.8 1092.9,404.8 1095.4,404.8 1097.4,404.8 1099.7,404.8 1101.9,404.8 1104.1,404.8 1106.4,404.8 1109.1,404.8 1110.8,404.8 1113.1,404.8 1115.3,404.8 1117.6,404.8 1119.8,404.8 1122.3,404.8 1124.3,404.8 1126.5,404.8 1128.8,404.8 1131.0,404.8 1133.3,404.8 1135.7,404.8 1137.8,404.8 1140.0,404.8" fill="none" stroke="#f39c12" stroke-width="3" stroke-linecap="round" stroke-linejoin="round" />
<!-- Legend -->
<line x1="60" y1="476" x2="92" y2="476" stroke="#3498db" stroke-width="4" />
<text x="102" y="482" fill="#aaa" font-size="22">★ Mixed</text>
<line x1="420" y1="476" x2="452" y2="476" stroke="#2ecc71" stroke-width="2" />
<text x="462" y="482" fill="#aaa" font-size="22">My Drying Time - 20min…</text>
<line x1="780" y1="476" x2="812" y2="476" stroke="#9b59b6" stroke-width="2" />
<text x="822" y="482" fill="#aaa" font-size="22">Quick</text>
<line x1="60" y1="510" x2="92" y2="510" stroke="#f39c12" stroke-width="3" />
<text x="102" y="516" fill="#aaa" font-size="22">This cycle (actual)</text>
</svg>