<svg xmlns="http://www.w3.org/2000/svg" viewBox="0 0 1200 506" style="background-color: #1c1c1c; font-family: sans-serif;">
<rect x="0" y="0" width="1200" height="450" fill="#1c1c1c" />
<line x1="60" y1="405" x2="1140" y2="405" stroke="#444" stroke-width="2" />
<line x1="60" y1="45" x2="60" y2="405" stroke="#444" stroke-width="2" />
<text x="60" y="30" fill="#aaa" font-size="20">1698W</text>
<text x="1140" y="440" fill="#aaa" font-size="20" text-anchor="middle">71m</text>
<text x="600" y="30" fill="#fff" font-size="26" text-anchor="middle" font-weight="bold">Profile Comparison: Mixed</text>
<polygon points="60.0,389.4 67.7,397.6 75.5,397.6 83.2,390.6 90.9,388.9 98.7,397.0 106.4,397.6 114.2,393.6 121.9,390.4 129.6,389.9 137.4,388.5 145.1,386.2 152.9,393.6 160.6,385.8 168.3,390.8 176.1,388.0 183.8,391.2 191.6,393.6 199.3,393.6 207.0,393.6 214.8,387.0 222.5,379.2 230.3,386.1 238.0,390.1 245.7,384.8 253.5,383.4 261.2,384.8 268.9,368.1 276.7,355.7 284.4,349.9 292.1,342.2 299.9,339.2 307.6,341.1 315.4,341.5 323.1,341.6 330.8,341.8 338.6,342.1 346.3,348.9 354.1,388.2 361.8,387.9 369.5,385.8 377.3,382.1 385.0,387.2 392.8,384.5 400.5,389.8 408.2,390.5 416.0,390.5 423.7,390.5 431.4,390.5 439.2,390.5 446.9,384.4 454.6,379.7 462.4,360.3 470.1,339.4 477.9,382.8 485.6,394.3 493.3,397.5 501.1,397.5 508.8,396.1 516.6,389.6 524.3,390.0 532.0,372.3 539.8,367.4 547.5,366.1 555.3,382.2 563.0,382.2 570.7,380.4 578.5,375.3 586.2,356.5 594.0,374.4 601.7,398.3 609.4,397.3 617.2,394.7 624.9,392.3 632.6,386.2 640.4,378.0 648.1,393.0 655.9,375.5 663.6,374.9 671.3,372.8 679.1,392.0 686.8,390.8 694.6,383.3 702.3,386.5 710.0,379.6 717.8,354.4 725.5,326.5 733.3,295.7 741.0,295.2 748.7,340.3 756.5,389.4 764.2,399.5 771.9,403.5 779.7,403.5 787.4,403.5 795.1,403.5 802.9,403.5 810.6,403.6 818.4,403.5 826.1,403.5 833.8,403.5 841.6,403.6 849.3,403.6 857.1,403.6 864.8,403.6 872.5,403.6 880.3,403.6 888.0,403.6 895.8,403.6 903.5,403.6 911.2,403.6 919.0,403.6 926.7,403.6 934.5,403.6 942.2,403.6 949.9,403.5 957.7,403.5 965.4,403.6 973.1,403.6 980.9,403.5 988.6,403.5 988.6,404.8 980.9,405.0 973.1,404.8 965.4,404.8 957.7,404.8 949.9,404.8 942.2,404.8 934.5,404.8 926.7,404.8 919.0,404.8 911.2,404.8 903.5,404.8 895.8,404.8 888.0,404.8 880.3,404.8 872.5,404.8 864.8,404.9 857.1,404.8 849.3,404.9 841.6,404.9 833.8,403.7 826.1,403.6 818.4,403.6 810.6,403.6 802.9,403.6 795.1,403.6 787.4,403.6 779.7,403.6 771.9,403.6 764.2,403.5 756.5,404.5 748.7,404.8 741.0,404.8 733.3,404.8 725.5,404.8 717.8,404.8 710.0,404.8 702.3,404.8 694.6,404.8 686.8,404.8 679.1,404.8 671.3,404.8 663.6,405.0 655.9,404.9 648.1,403.6 640.4,403.6 632.6,403.6 624.9,403.6 617.2,403.6 609.4,403.6 601.7,403.6 594.0,403.6 586.2,403.6 578.5,403.6 570.7,403.6 563.0,403.6 555.3,403.6 547.5,403.6 539.8,403.6 532.0,403.6 524.3,403.6 516.6,403.6 508.8,403.6 501.1,403.6 493.3,403.6 485.6,399.6 477.9,399.5 470.1,396.9 462.4,396.9 454.6,396.9 446.9,396.9 439.2,396.9 431.4,399.5 423.7,403.5 416.0,399.7 408.2,396.9 400.5,396.9 392.8,396.9 385.0,401.2 377.3,396.9 369.5,396.9 361.8,396.9 354.1,396.9 346.3,390.8 338.6,389.1 330.8,395.1 323.1,395.1 315.4,395.1 307.6,395.1 299.9,388.9 292.1,388.4 284.4,388.4 276.7,386.4 268.9,391.1 261.2,390.8 253.5,391.1 245.7,392.1 238.0,400.3 230.3,403.5 222.5,389.0 214.8,396.2 207.0,403.3 199.3,403.3 191.6,403.3 183.8,398.3 176.1,394.7 168.3,394.1 160.6,394.1 152.9,403.5 145.1,396.9 137.4,394.1 129.6,394.1 121.9,396.2 114.2,403.5 106.4,402.2 98.7,402.2 90.9,399.7 83.2,399.7 75.5,402.6 67.7,401.5 60.0,400.9" fill="#3498db" fill-opacity="0.2" stroke="none" />
<polyline points="60.0,397.9 67.7,400.1 75.5,400.7 83.2,395.0 90.9,394.4 98.7,399.9 106.4,400.4 114.2,398.3 121.9,393.3 129.6,391.5 137.4,391.0 145.1,392.6 152.9,400.0 160.6,389.5 168.3,392.5 176.1,391.3 183.8,395.3 191.6,397.6 199.3,397.6 207.0,397.8 214.8,390.1 222.5,383.3 230.3,394.0 238.0,394.0 245.7,387.3 253.5,387.1 261.2,387.5 268.9,384.8 276.7,378.5 284.4,379.5 292.1,378.0 299.9,378.7 307.6,382.5 315.4,383.7 323.1,384.2 330.8,383.0 338.6,376.8 346.3,382.1 354.1,390.5 361.8,391.2 369.5,388.6 377.3,388.3 385.0,394.4 392.8,392.6 400.5,392.8 408.2,393.0 416.0,395.7 423.7,398.0 431.4,396.9 439.2,393.7 446.9,389.8 454.6,387.5 462.4,374.0 470.1,356.4 477.9,392.6 485.6,397.9 493.3,399.8 501.1,400.8 508.8,399.2 516.6,393.9 524.3,396.4 532.0,383.1 539.8,377.7 547.5,376.5 555.3,387.3 563.0,393.7 570.7,390.1 578.5,385.0 586.2,368.1 594.0,392.7 601.7,400.2 609.4,399.4 617.2,398.4 624.9,396.5 632.6,394.1 640.4,391.6 648.1,399.8 655.9,387.2 663.6,381.9 671.3,381.8 679.1,399.2 686.8,399.0 694.6,392.3 702.3,392.0 710.0,385.9 717.8,367.8 725.5,347.4 733.3,322.5 741.0,323.7 748.7,363.4 756.5,396.2 764.2,401.2 771.9,403.5 779.7,403.6 787.4,403.6 795.1,403.6 802.9,403.6 810.6,403.6 818.4,403.6 826.1,403.6 833.8,403.6 841.6,404.1 849.3,404.2 857.1,404.2 864.8,404.2 872.5,404.2 880.3,404.2 888.0,404.2 895.8,404.2 903.5,404.2 911.2,404.2 919.0,404.2 926.7,404.2 934.5,404.2 942.2,404.2 949.9,404.2 957.7,404.2 965.4,404.2 973.1,404.2 980.9,404.2 988.6,404.2" fill="none" stroke="#3498db" stroke-width="4" stroke-linecap="round" stroke-linejoin="round" />
<polyline points="60.0,398.0 69.9,174.1 79.8,177.4 89.7,220.4 99.6,334.2 109.5,364.6 119.5,213.1 129.4,180.2 139.3,216.6 149.2,178.1 159.1,175.0 169.0,174.7 178.9,180.3 188.8,197.6 198.7,249.6 208.6,180.1 218.5,202.8 228.5,395.8 238.3,356.2 248.3,360.3 258.2,394.3 268.1,394.7 278.0,395.5 287.9,397.6 297.8,396.4 307.7,395.8 317.6,396.2 327.5,394.6 337.4,394.4 347.3,396.8 357.2,396.8 367.2,396.8 377.1,398.1 387.0,401.8 396.9,401.8 406.8,401.8 416.7,402.1 426.6,402.2 436.5,402.2 446.4,402.2 456.3,402.2 466.2,402.1 476.2,402.2 486.0,402.1 496.0,402.2 505.9,402.1 515.8,401.0 525.7,401.6 535.6,401.6 545.5,401.6 555.4,401.6 565.3,401.6 575.2,401.6 585.1,401.6 595.0,401.7 605.0,401.6 614.9,400.6 624.8,402.6 634.7,402.6 644.6,402.6 654.5,402.6 664.4,402.6 674.3,402.6 684.2,403.2 694.1,403.6 704.0,403.6 714.0,403.5 723.9,403.5 733.8,403.5 743.7,403.5 753.6,403.5 763.5,403.6 773.4,403.6 783.3,403.5 793.2,403.5 803.1,403.5 813.0,403.5 822.9,403.5 832.8,403.5 842.7,403.5 852.7,403.5 862.6,403.5 872.5,403.5 882.4,403.6 892.3,403.6 902.2,403.6 912.1,403.6 922.0,403.5 931.9,403.6 941.8,403.5 951.7,403.6 961.7,403.6 971.6,402.7 981.5,403.4 991.4,403.5 1001.3,403.5 1011.2,403.5 1021.1,403.5 1031.0,403.4 1040.9,400.7 1050.8,403.5 1060.7,403.5 1070.7,403.6 1080.5,403.6 1090.5,403.5 1100.4,403.6 1110.3,403.6 1120.2,403.6 1130.1,403.6 1140.0,403.6" fill="none" stroke="#2ecc71" stroke-width="2" stroke-linecap="round" stroke-linejoin="round" />
<polyline points="60.0,399.6 70.0,399.8 77.6,403.5 87.8,382.5 97.6,402.2 105.2,401.4 115.2,396.0 125.3,393.8 133.0,386.9 142.8,392.0 152.9,403.5 160.4,385.6 170.4,395.7 178.1,387.2 188.0,403.5 195.5,392.6 203.1,403.5 213.1,394.3 223.3,380.7 233.2,403.6 243.2,386.9 250.7,388.6 260.8,388.4 268.5,388.4 278.3,384.3 285.9,389.3 293.4,387.3 300.9,389.1 311.0,391.5 318.5,394.4 328.7,395.3 338.6,386.2 346.1,387.4 353.6,389.0 361.2,394.0 368.7,386.5 378.7,389.3 386.3,403.5 396.3,387.6 403.9,391.7 413.9,391.5 423.9,403.5 434.1,398.0 444.0,389.3 454.0,386.7 461.6,373.8 471.6,343.7 479.3,400.1 489.2,396.8 496.7,402.2 506.7,402.3 514.3,385.3 521.8,399.3 529.3,385.2 539.5,375.6 549.4,375.4 559.4,392.6 567.0,394.9 577.0,383.2 584.8,361.7 594.6,385.5 602.1,399.8 612.1,397.6 619.7,397.4 629.9,391.8 639.7,386.8 647.3,402.4 654.8,385.6 662.3,375.2 672.4,372.9 679.9,398.0 690.1,395.1 700.0,394.5 710.0,380.9 717.6,362.5 727.6,330.3 735.3,302.2 745.1,312.3 755.2,390.9 762.7,399.6 770.2,403.6 780.5,403.6 790.3,403.6 797.8,403.6 805.4,403.6 812.9,403.6 822.9,403.5 833.0,403.5 840.7,404.9 843.0,404.9 845.5,404.9 848.0,404.9 850.6,404.8 853.1,404.8 855.8,404.8 858.1,404.8 860.6,404.8 863.1,404.8 865.6,404.9 868.1,404.8 871.1,404.8 873.1,404.8 875.6,404.8 878.2,404.8 880.7,404.8 883.2,404.8 885.9,404.8 888.2,404.8 890.7,404.8 893.2,404.8 895.7,404.8 898.2,404.8 900.9,404.8 903.3,404.8 905.8,404.9 908.3,404.8 910.8,404.8 913.3,404.8 916.0,404.8 918.3,404.8 920.8,404.8 923.3,404.8 925.8,404.8 928.4,404.9 931.1,404.8 933.4,404.8 935.9,404.8 938.4,404.8 940.9,404.8 943.4,404.8 946.1,404.8 948.4,404.8 950.9,404.8 953.5,404.9 956.0,404.8 958.5,404.8 961.2,404.8 963.5,404.8 966.0,404.8 968.5,404.8 971.0,404.8 973.5,404.8 976.1,404.9 978.5,404.8 981.1,405.0 983.6,404.8 986.1,404.8 988.6,404.8" fill="none" stroke="#f39c12" stroke-width="3" stroke-linecap="round" stroke-linejoin="round" />
<!-- Legend -->
<line x1="60" y1="476" x2="92" y2="476" stroke="#3498db" stroke-width="4" />
<text x="102" y="482" fill="#aaa" font-size="22">★ Mixed</text>
<line x1="420" y1="476" x2="452" y2="476" stroke="#2ecc71" stroke-width="2" />
<text x="462" y="482" fill="#aaa" font-size="22">Quick</text>
<line x1="780" y1="476" x2="812" y2="476" stroke="#f39c12" stroke-width="3" />
<text x="822" y="482" fill="#aaa" font-size="22">This cycle (actual)</text>
</svg>