<svg xmlns="http://www.w3.org/2000/svg" viewBox="0 0 1200 540" style="background-color: #1c1c1c; font-family: sans-serif;">
<rect x="0" y="0" width="1200" height="450" fill="#1c1c1c" />
<line x1="60" y1="405" x2="1140" y2="405" stroke="#444" stroke-width="2" />
<line x1="60" y1="45" x2="60" y2="405" stroke="#444" stroke-width="2" />
<text x="60" y="30" fill="#aaa" font-size="20">1770W</text>
<text x="1140" y="440" fill="#aaa" font-size="20" text-anchor="middle">76m</text>
<text x="600" y="30" fill="#fff" font-size="26" text-anchor="middle" font-weight="bold">Profile Comparison: Mixed</text>
<polygon points="60.0,363.2 67.4,363.2 74.7,397.9 82.1,397.9 89.5,397.7 96.9,389.8 104.2,389.8 111.6,390.5 119.0,391.6 126.3,391.6 133.7,384.9 141.1,387.4 148.4,386.9 155.8,388.2 163.2,393.0 170.6,388.4 177.9,381.4 185.3,393.0 192.7,393.0 200.0,393.0 207.4,393.0 214.8,392.4 222.2,392.4 229.5,393.0 236.9,393.0 244.3,383.7 251.6,354.0 259.0,342.4 266.4,343.8 273.7,344.2 281.1,344.2 288.5,344.5 295.9,344.8 303.2,367.1 310.6,390.6 318.0,390.6 325.3,388.8 332.7,386.8 340.1,383.1 347.5,386.8 354.8,389.6 362.2,389.6 369.6,369.6 376.9,388.6 384.3,390.0 391.7,390.0 399.0,390.0 406.4,390.0 413.8,388.0 421.2,390.0 428.5,376.1 435.9,347.3 443.3,333.4 450.6,384.8 458.0,392.5 465.4,392.5 472.8,387.8 480.1,364.6 487.5,349.7 494.9,382.6 502.2,382.6 509.6,381.4 517.0,354.7 524.3,368.6 531.7,382.3 539.1,382.3 546.5,382.3 553.8,382.3 561.2,376.7 568.6,329.0 575.9,375.0 583.3,394.2 590.7,397.3 598.1,397.3 605.4,397.3 612.8,397.3 620.2,395.6 627.5,395.1 634.9,376.3 642.3,374.1 649.6,388.0 657.0,381.4 664.4,385.8 671.8,374.5 679.1,353.5 686.5,326.7 693.9,295.3 701.2,295.3 708.6,312.9 716.0,381.7 723.4,398.0 730.7,403.6 738.1,403.6 745.5,403.6 752.8,403.6 760.2,403.6 767.6,403.6 774.9,403.6 782.3,403.6 789.7,403.6 797.1,403.7 804.4,403.7 811.8,403.7 819.2,403.7 826.5,403.7 833.9,403.7 841.3,403.7 848.7,403.7 856.0,403.7 863.4,403.7 870.8,403.6 878.1,403.6 885.5,403.6 892.9,403.6 900.2,403.6 907.6,403.6 915.0,403.6 922.4,403.6 929.7,403.6 929.7,404.9 922.4,404.8 915.0,404.8 907.6,404.8 900.2,404.8 892.9,404.8 885.5,404.9 878.1,404.8 870.8,404.8 863.4,404.8 856.0,404.8 848.7,404.9 841.3,404.8 833.9,404.8 826.5,404.8 819.2,404.8 811.8,404.9 804.4,404.9 797.1,404.9 789.7,404.4 782.3,403.7 774.9,403.7 767.6,403.7 760.2,403.7 752.8,403.7 745.5,403.7 738.1,403.7 730.7,403.7 723.4,403.7 716.0,403.7 708.6,404.7 701.2,404.8 693.9,404.8 686.5,404.8 679.1,404.8 671.8,404.8 664.4,404.8 657.0,404.9 649.6,404.8 642.3,404.8 634.9,404.8 627.5,404.8 620.2,404.9 612.8,404.2 605.4,403.6 598.1,403.6 590.7,403.6 583.3,403.6 575.9,403.6 568.6,403.6 561.2,403.7 553.8,403.6 546.5,403.6 539.1,403.6 531.7,403.6 524.3,403.6 517.0,403.6 509.6,403.6 502.2,403.6 494.9,403.6 487.5,403.6 480.1,403.6 472.8,403.6 465.4,403.6 458.0,403.6 450.6,403.6 443.3,403.6 435.9,403.6 428.5,403.6 421.2,403.6 413.8,403.6 406.4,403.6 399.0,403.6 391.7,403.7 384.3,403.6 376.9,403.7 369.6,403.6 362.2,403.6 354.8,403.6 347.5,403.6 340.1,403.6 332.7,403.6 325.3,403.6 318.0,403.6 310.6,403.6 303.2,403.6 295.9,398.5 288.5,399.2 281.1,398.5 273.7,398.5 266.4,399.5 259.0,403.5 251.6,398.5 244.3,398.5 236.9,402.1 229.5,403.5 222.2,400.4 214.8,400.4 207.4,402.6 200.0,403.5 192.7,403.6 185.3,403.5 177.9,394.2 170.6,394.4 163.2,403.5 155.8,398.8 148.4,394.1 141.1,394.1 133.7,394.1 126.3,403.6 119.0,403.6 111.6,398.8 104.2,398.8 96.9,398.8 89.5,403.6 82.1,402.9 74.7,403.5 67.4,401.5 60.0,402.3" fill="#3498db" fill-opacity="0.2" stroke="none" />
<polyline points="60.0,394.8 67.4,387.3 74.7,401.1 82.1,400.2 89.5,401.1 96.9,394.3 104.2,393.8 111.6,395.2 119.0,398.6 126.3,396.8 133.7,388.8 141.1,390.0 148.4,390.5 155.8,394.6 163.2,399.0 170.6,392.8 177.9,389.8 185.3,398.9 192.7,400.0 200.0,400.1 207.4,398.3 214.8,395.7 222.2,395.9 229.5,398.5 236.9,397.3 244.3,388.8 251.6,382.0 259.0,389.3 266.4,389.1 273.7,383.8 281.1,387.6 288.5,390.5 295.9,388.0 303.2,395.4 310.6,399.2 318.0,399.2 325.3,394.1 332.7,391.9 340.1,391.3 347.5,391.3 354.8,393.6 362.2,395.9 369.6,388.8 376.9,399.4 384.3,400.0 391.7,400.0 399.0,400.0 406.4,399.2 413.8,394.5 421.2,394.8 428.5,385.8 435.9,371.2 443.3,367.5 450.6,390.5 458.0,399.0 465.4,399.8 472.8,393.3 480.1,375.6 487.5,370.0 494.9,395.4 502.2,395.8 509.6,389.4 517.0,376.3 524.3,381.5 531.7,393.2 539.1,396.7 546.5,396.0 553.8,391.7 561.2,383.1 568.6,361.4 575.9,386.5 583.3,398.1 590.7,401.3 598.1,401.3 605.4,400.8 612.8,401.3 620.2,401.3 627.5,400.9 634.9,389.2 642.3,385.1 649.6,399.4 657.0,387.6 664.4,390.4 671.8,384.1 679.1,365.9 686.5,344.5 693.9,319.9 701.2,322.0 708.6,348.7 716.0,390.7 723.4,401.6 730.7,403.6 738.1,403.6 745.5,403.6 752.8,403.6 760.2,403.6 767.6,403.6 774.9,403.6 782.3,403.6 789.7,403.9 797.1,404.5 804.4,404.5 811.8,404.5 819.2,404.5 826.5,404.5 833.9,404.5 841.3,404.5 848.7,404.5 856.0,404.5 863.4,404.5 870.8,404.5 878.1,404.5 885.5,404.5 892.9,404.5 900.2,404.5 907.6,404.5 915.0,404.5 922.4,404.5 929.7,404.5" fill="none" stroke="#3498db" stroke-width="4" stroke-linecap="round" stroke-linejoin="round" />
<polyline points="60.0,180.3 62.4,84.0 64.7,87.9 67.1,87.8 69.5,87.8 71.8,87.8 74.2,88.1 76.6,88.2 78.9,85.2 81.3,85.8 83.7,89.5 86.1,89.1 88.4,89.2 90.8,89.5 93.2,88.7 95.5,89.1 97.9,89.7 100.3,88.9 102.6,88.8 105.0,89.3 107.4,88.8 109.7,89.2 112.1,89.6 114.5,89.3 116.8,89.6 119.2,90.0 121.6,90.5 124.0,90.6 126.3,90.3 128.7,91.0 131.1,91.6 133.4,90.7 135.8,91.0 138.2,90.3 140.5,89.9 142.9,192.6 145.3,192.7 147.6,192.6 150.0,192.6 152.4,192.1 154.8,191.7 157.1,191.8 159.5,192.1 161.8,191.9 164.2,190.9 166.6,191.8 169.0,192.1 171.3,186.7 173.7,190.0 176.1,190.5 178.4,185.4 180.8,189.8 183.2,190.9 185.5,187.3 187.9,189.8 190.3,189.4 192.6,186.7 195.0,190.1 197.4,189.2 199.8,187.3 202.1,192.0 204.5,191.5 206.9,185.7 209.2,188.3 211.6,190.8 214.0,186.9 216.3,192.9 218.7,191.4 221.1,187.1 223.4,193.6 225.8,194.2 228.2,186.8 230.5,194.3 232.9,194.9 235.3,189.9 237.7,192.3 240.0,189.8 242.4,187.3 244.7,195.3 247.1,193.0 249.5,188.2 251.9,202.0 254.2,196.7 256.6,187.5 259.0,194.6 261.3,195.2 263.7,187.7 266.1,191.5 268.4,192.2 270.8,187.1 273.2,195.0 275.5,201.5 277.9,292.3 280.3,297.3 282.7,296.0 285.0,271.5 287.4,193.2 289.8,190.2 292.1,189.2 294.5,193.7 296.9,192.6 299.2,189.5 301.6,194.9 304.0,192.2 306.4,191.1 308.7,194.6 311.1,193.9 313.4,258.0 315.8,367.2 318.2,395.3 320.6,392.5 322.9,396.0 325.3,398.3 327.7,397.3 330.0,398.0 332.4,398.1 334.8,398.9 337.1,397.9 339.5,398.5 341.9,398.7 344.2,396.7 346.6,396.6 349.0,399.7 351.3,398.1 353.7,399.3 356.1,399.5 358.4,398.5 360.8,399.3 363.2,396.4 365.6,395.5 367.9,398.9 370.3,398.8 372.7,396.5 375.0,399.6 377.4,400.2 379.8,400.0 382.1,399.3 384.5,399.1 386.9,399.4 389.3,400.0 391.6,400.1 394.0,399.6 396.3,400.1 398.7,399.9 401.1,396.3 403.5,399.6 405.8,400.3 408.2,400.1 410.6,400.5 412.9,400.1 415.3,399.9 417.7,400.5 420.0,393.8 422.4,397.5 424.8,400.2 427.1,399.8 429.5,399.8 431.9,400.4 434.3,399.9 436.6,399.9 439.0,399.1 441.3,399.5 443.7,399.6 446.1,400.3 448.5,399.7 450.8,399.5 453.2,400.3 455.6,399.8 457.9,395.2 460.3,400.2 462.7,400.1 465.0,400.1 467.4,399.5 469.8,403.5 472.2,404.1 474.5,404.1 476.9,404.1 479.3,404.1 481.6,404.1 484.0,404.1 486.4,404.1 488.7,404.1" fill="none" stroke="#2ecc71" stroke-width="2" stroke-linecap="round" stroke-linejoin="round" />
<polyline points="60.0,366.7 67.4,149.4 74.8,133.2 82.2,128.2 89.6,132.6 97.0,136.9 104.4,167.9 111.8,208.8 119.2,161.3 126.6,133.5 134.0,148.2 141.4,164.9 148.8,138.1 156.2,137.7 163.6,136.8 171.0,165.6 178.4,194.0 185.7,139.5 193.1,145.4 200.5,197.5 208.0,362.7 215.4,369.0 222.7,370.4 230.1,368.4 237.5,320.7 244.9,372.8 252.3,376.1 259.7,376.7 267.1,378.9 274.5,379.6 281.9,376.9 289.3,380.0 296.7,383.6 304.1,384.7 311.5,385.6 318.9,386.7 326.3,387.8 333.7,388.8 341.1,390.0 348.5,391.1 355.9,392.2 363.3,393.2 370.7,394.4 378.1,395.4 385.5,396.5 392.9,397.6 400.3,397.9 407.7,398.1 415.1,398.1 422.5,398.4 429.9,398.3 437.3,397.9 444.7,398.0 452.1,399.0 459.5,399.0 466.8,399.0 474.2,399.5 481.6,399.6 489.0,400.0 496.4,400.0 503.8,400.7 511.2,400.8 518.6,400.8 526.0,400.8 533.4,401.6 540.8,401.2 548.2,401.6 555.6,401.7 563.0,401.7 570.4,401.7 577.8,401.7 585.2,401.8 592.6,402.0 600.0,402.1 607.4,402.2 614.8,402.9 622.2,402.9 629.6,402.9 637.0,403.0 644.4,403.0 651.8,403.0 659.2,403.6 666.6,403.6 674.0,403.6 681.4,403.6 688.8,403.6 696.2,403.6 703.6,403.6 711.0,403.7 718.4,403.6 725.8,403.6 733.2,403.6 740.5,403.7 747.9,403.6 755.3,403.6 762.7,403.6 770.1,403.6 777.5,403.6 784.9,403.6 792.3,402.4 799.7,403.1 807.1,403.6 814.5,403.4 821.9,403.6 829.3,403.6 836.7,403.6 844.1,403.6 851.5,403.6 858.9,403.6 866.3,403.6 873.7,403.6 881.1,403.6 888.5,403.6 895.9,403.6 903.3,403.7 910.7,403.6 918.1,403.6 925.5,403.6 932.9,402.9 940.3,403.6 947.7,403.6 955.1,403.6 962.5,403.5 969.9,401.5 977.3,403.3 984.6,403.6 992.0,403.6 999.5,403.6 1006.9,403.6 1014.3,403.6 1021.6,403.6 1029.0,403.7 1036.4,403.6 1043.8,403.6 1051.2,403.6 1058.6,403.6 1066.0,403.7 1073.4,404.1 1080.8,404.2 1088.2,404.3 1095.6,404.2 1103.0,404.2 1110.4,404.2 1117.8,404.2 1125.2,404.2 1132.6,404.2 1140.0,404.2" fill="none" stroke="#9b59b6" stroke-width="2" stroke-linecap="round" stroke-linejoin="round" />
<polyline points="60.0,399.8 68.1,363.3 75.2,403.5 82.2,401.1 91.6,402.4 98.9,396.0 108.1,402.3 115.1,391.5 124.5,383.8 133.9,403.5 141.2,393.5 150.3,403.5 157.4,389.1 166.8,380.9 173.8,382.0 180.8,391.7 187.9,403.5 194.9,402.6 204.3,403.6 211.6,388.7 220.8,403.1 227.8,403.5 237.2,386.6 244.2,378.8 253.9,387.1 263.0,403.5 272.4,386.7 279.4,382.4 288.8,386.8 296.1,383.2 305.3,403.6 312.3,403.6 321.7,384.4 343.9,386.4 352.5,381.8 361.6,403.5 371.0,390.1 378.1,384.6 385.1,382.2 394.7,391.4 403.9,403.6 410.9,403.6 418.0,403.6 427.4,381.9 434.4,381.9 441.4,386.0 451.1,392.2 460.2,402.4 469.6,382.6 476.7,390.9 483.7,381.3 490.7,385.5 500.1,379.4 507.4,380.7 516.6,387.7 526.0,383.3 535.6,380.5 544.7,384.5 554.1,385.1 563.6,379.2 572.9,403.6 582.3,387.7 591.9,388.3 601.1,395.8 608.1,396.6 615.2,380.9 624.6,357.0 631.6,332.4 641.0,399.9 648.3,402.4 657.4,402.4 666.8,402.4 673.9,370.5 683.3,367.0 690.3,400.4 699.7,400.4 709.1,400.5 718.7,398.4 727.9,398.5 734.9,399.8 742.0,391.0 749.0,354.6 758.4,389.1 765.4,374.8 772.5,354.7 779.5,381.0 789.2,403.6 798.3,401.1 805.3,391.4 814.7,378.6 821.8,403.3 828.8,368.7 838.2,372.8 845.5,372.1 854.7,376.4 864.0,371.8 871.1,400.0 880.5,390.1 887.8,389.6 896.9,394.5 904.0,400.3 911.0,389.8 920.4,380.4 927.4,397.5 936.8,370.7 944.1,345.1 953.3,301.8 962.6,301.6 972.2,373.7 981.4,399.9 988.5,403.7 997.9,403.6 1007.3,403.6 1014.6,403.6 1023.7,403.7 1030.7,403.6 1037.8,403.6 1047.2,403.6 1054.2,404.9 1056.8,404.9 1058.9,404.9 1061.3,404.9 1063.6,404.9 1066.0,404.8 1068.3,404.8 1070.9,404.8 1073.0,404.8 1075.3,404.8 1077.7,404.8 1080.0,404.8 1082.4,404.8 1085.0,404.8 1087.1,404.8 1089.4,404.9 1091.8,404.8 1094.1,404.8 1096.5,404.8 1099.1,404.8 1101.2,404.8 1103.5,404.9 1105.9,404.8 1108.2,404.8" fill="none" stroke="#f39c12" stroke-width="3" stroke-linecap="round" stroke-linejoin="round" />
<!-- Legend -->
<line x1="60" y1="476" x2="92" y2="476" stroke="#3498db" stroke-width="4" />
<text x="102" y="482" fill="#aaa" font-size="22">★ Mixed</text>
<line x1="420" y1="476" x2="452" y2="476" stroke="#2ecc71" stroke-width="2" />
<text x="462" y="482" fill="#aaa" font-size="22">My Drying Time - 20min…</text>
<line x1="780" y1="476" x2="812" y2="476" stroke="#9b59b6" stroke-width="2" />
<text x="822" y="482" fill="#aaa" font-size="22">Quick</text>
<line x1="60" y1="510" x2="92" y2="510" stroke="#f39c12" stroke-width="3" />
<text x="102" y="516" fill="#aaa" font-size="22">This cycle (actual)</text>
</svg>