<svg xmlns="http://www.w3.org/2000/svg" viewBox="0 0 1200 540" style="background-color: #1c1c1c; font-family: sans-serif;">
<rect x="0" y="0" width="1200" height="450" fill="#1c1c1c" />
<line x1="60" y1="405" x2="1140" y2="405" stroke="#444" stroke-width="2" />
<line x1="60" y1="45" x2="60" y2="405" stroke="#444" stroke-width="2" />
<text x="60" y="30" fill="#aaa" font-size="20">1772W</text>
<text x="1140" y="440" fill="#aaa" font-size="20" text-anchor="middle">77m</text>
<text x="600" y="30" fill="#fff" font-size="26" text-anchor="middle" font-weight="bold">Profile Comparison: Mixed</text>
<polygon points="60.0,390.1 67.3,397.9 74.6,396.5 81.9,390.1 89.3,388.2 96.6,395.1 103.9,395.1 111.2,388.2 118.5,390.7 125.8,388.1 133.1,387.3 140.5,393.6 147.8,394.1 155.1,388.2 162.4,390.1 169.7,389.4 177.0,394.1 184.3,394.0 191.6,394.1 199.0,391.2 206.3,382.4 213.6,385.4 220.9,387.0 228.2,382.2 235.5,387.0 242.8,383.7 250.1,383.7 257.5,367.4 264.8,357.0 272.1,351.0 279.4,343.2 286.7,342.4 294.0,343.9 301.3,344.2 308.6,344.3 316.0,344.5 323.3,344.9 330.6,367.2 337.9,389.5 345.2,379.9 352.5,384.5 359.8,383.5 367.2,388.5 374.5,384.6 381.8,391.0 389.1,392.5 396.4,392.5 403.7,392.5 411.1,391.8 418.4,384.0 425.7,379.0 433.0,362.0 440.3,336.4 447.6,384.6 454.9,391.1 462.3,391.1 469.6,391.1 476.9,386.7 484.2,395.1 491.5,368.1 498.8,372.7 506.1,367.4 513.4,372.4 520.8,387.0 528.1,387.0 535.4,379.2 542.7,355.7 550.0,351.8 557.3,395.7 564.6,397.2 571.9,397.0 579.3,395.7 586.6,388.4 593.9,374.9 601.2,388.4 608.5,376.3 615.8,374.2 623.1,374.2 630.4,389.5 637.8,396.4 645.1,384.5 652.4,384.6 659.7,376.1 667.0,354.6 674.3,326.8 681.6,305.3 689.0,295.4 696.3,317.6 703.6,387.4 710.9,400.8 718.2,403.6 725.5,403.6 732.8,403.6 740.2,403.6 747.5,403.6 754.8,403.6 762.1,403.6 769.4,403.6 776.7,403.7 784.0,403.7 791.4,403.7 798.7,403.7 806.0,403.7 813.3,403.7 820.6,403.7 827.9,403.7 835.2,403.7 842.6,403.7 849.9,403.7 857.2,403.7 864.5,403.6 871.8,403.6 879.1,403.6 886.4,403.6 893.7,403.6 901.1,403.6 908.4,403.6 915.7,403.6 915.7,404.8 908.4,405.0 901.1,404.8 893.7,404.8 886.4,404.8 879.1,404.8 871.8,404.8 864.5,404.8 857.2,404.8 849.9,404.8 842.6,404.8 835.2,404.8 827.9,404.8 820.6,404.8 813.3,404.8 806.0,404.8 798.7,404.8 791.4,404.8 784.0,404.9 776.7,404.4 769.4,403.7 762.1,403.7 754.8,403.7 747.5,403.7 740.2,403.7 732.8,403.7 725.5,403.7 718.2,403.7 710.9,403.7 703.6,403.7 696.3,404.7 689.0,404.8 681.6,404.8 674.3,404.8 667.0,404.8 659.7,404.8 652.4,404.8 645.1,404.9 637.8,404.8 630.4,404.8 623.1,404.8 615.8,404.8 608.5,404.9 601.2,404.2 593.9,403.6 586.6,403.6 579.3,403.6 571.9,403.6 564.6,403.6 557.3,403.6 550.0,403.7 542.7,403.6 535.4,403.6 528.1,403.6 520.8,403.6 513.4,403.6 506.1,403.6 498.8,403.6 491.5,403.6 484.2,403.6 476.9,403.6 469.6,403.6 462.3,403.6 454.9,403.6 447.6,403.6 440.3,403.6 433.0,403.6 425.7,403.6 418.4,403.6 411.1,403.6 403.7,403.6 396.4,403.6 389.1,403.6 381.8,403.7 374.5,403.6 367.2,403.7 359.8,403.6 352.5,403.6 345.2,403.6 337.9,403.6 330.6,390.9 323.3,389.5 316.0,389.5 308.6,395.1 301.3,395.1 294.0,395.4 286.7,392.6 279.4,390.4 272.1,389.6 264.8,387.8 257.5,387.7 250.1,390.6 242.8,390.5 235.5,393.0 228.2,393.0 220.9,401.4 213.6,391.4 206.3,392.4 199.0,396.8 191.6,403.5 184.3,403.6 177.0,403.6 169.7,395.4 162.4,395.4 155.1,395.4 147.8,403.6 140.5,403.1 133.1,395.1 125.8,395.1 118.5,395.1 111.2,400.4 103.9,402.7 96.6,403.5 89.3,401.0 81.9,401.0 74.6,402.9 67.3,401.7 60.0,402.3" fill="#3498db" fill-opacity="0.2" stroke="none" />
<polyline points="60.0,398.8 67.3,400.2 74.6,400.9 81.9,394.1 89.3,393.4 96.6,400.7 103.9,400.7 111.2,395.1 118.5,393.4 125.8,391.1 133.1,391.3 140.5,397.9 147.8,398.7 155.1,390.6 162.4,392.9 169.7,392.2 177.0,398.4 184.3,397.3 191.6,399.3 199.0,394.2 206.3,387.7 213.6,388.5 220.9,394.1 228.2,387.7 235.5,389.4 242.8,388.1 250.1,388.3 257.5,381.2 264.8,382.3 272.1,383.1 279.4,382.5 286.7,383.9 294.0,385.2 301.3,385.5 308.6,385.2 316.0,381.1 323.3,382.1 330.6,386.5 337.9,392.8 345.2,388.8 352.5,391.5 359.8,395.2 367.2,394.5 374.5,393.3 381.8,394.3 389.1,396.3 396.4,399.3 403.7,397.8 411.1,395.3 418.4,389.5 425.7,386.5 433.0,371.9 440.3,359.1 447.6,396.2 454.9,397.8 462.3,399.2 469.6,399.2 476.9,393.9 484.2,398.0 491.5,385.3 498.8,383.1 506.1,379.3 513.4,383.6 520.8,394.8 528.1,396.3 535.4,388.4 542.7,369.7 550.0,378.9 557.3,398.9 564.6,399.7 571.9,398.6 579.3,399.0 586.6,394.5 593.9,391.8 601.2,400.1 608.5,388.3 615.8,380.7 623.1,381.1 630.4,397.9 637.8,400.6 645.1,394.7 652.4,390.3 659.7,384.2 667.0,367.2 674.3,347.1 681.6,322.7 689.0,323.5 696.3,359.2 703.6,396.3 710.9,402.2 718.2,403.6 725.5,403.6 732.8,403.7 740.2,403.6 747.5,403.6 754.8,403.7 762.1,403.6 769.4,403.6 776.7,404.0 784.0,404.4 791.4,404.4 798.7,404.4 806.0,404.4 813.3,404.4 820.6,404.4 827.9,404.4 835.2,404.4 842.6,404.4 849.9,404.4 857.2,404.4 864.5,404.3 871.8,404.3 879.1,404.3 886.4,404.3 893.7,404.3 901.1,404.3 908.4,404.3 915.7,404.3" fill="none" stroke="#3498db" stroke-width="4" stroke-linecap="round" stroke-linejoin="round" />
<polyline points="60.0,244.2 62.3,244.2 64.7,243.7 67.0,242.0 69.4,234.5 71.7,174.5 74.1,80.2 76.4,77.2 78.7,73.5 81.1,74.4 83.4,81.3 85.8,80.1 88.1,84.8 90.5,81.6 92.8,80.7 95.1,86.0 97.5,82.5 99.8,81.6 102.2,86.9 104.5,83.9 106.9,82.4 109.2,88.1 111.5,84.2 113.9,85.1 116.2,90.2 118.6,81.3 120.9,82.2 123.2,87.1 125.6,79.7 127.9,86.0 130.3,90.5 132.6,84.0 135.0,84.3 137.3,89.9 139.6,85.3 142.0,88.3 144.3,90.3 146.7,83.5 149.0,90.0 151.3,90.3 153.7,85.3 156.0,90.3 158.4,90.6 160.7,88.5 163.0,253.6 165.4,91.6 167.7,81.9 170.1,82.0 172.4,90.1 174.8,87.2 177.1,87.2 179.4,88.7 181.8,87.6 184.1,89.7 186.5,89.0 188.8,88.2 191.2,90.5 193.5,88.8 195.8,82.7 198.2,90.9 200.5,86.7 202.9,85.2 205.2,90.4 207.6,89.3 209.9,185.4 212.2,348.4 214.6,386.4 216.9,395.0 219.3,393.6 221.6,394.7 224.0,396.0 226.3,394.4 228.6,394.4 231.0,394.3 233.3,394.5 235.7,394.3 238.0,394.6 240.4,395.5 242.7,392.7 245.0,392.5 247.4,398.4 249.7,396.8 252.1,397.5 254.4,397.2 256.8,396.1 259.1,396.6 261.4,396.7 263.8,394.7 266.1,396.5 268.5,396.7 270.8,396.7 273.2,396.2 275.5,395.2 277.8,396.4 280.2,392.5 282.5,392.0 284.9,395.0 287.2,391.5 289.5,390.9 291.9,394.2 294.2,389.9 296.6,390.8 298.9,393.1 301.2,389.9 303.6,391.8 305.9,394.6 308.3,390.4 310.6,392.0 313.0,394.3 315.3,390.5 317.6,390.8 320.0,395.8 322.3,391.0 324.7,393.5 327.0,396.7 329.4,390.5 331.7,393.6 334.0,398.3 336.4,388.2 338.7,393.8 341.1,396.5 343.4,389.0 345.8,393.1 348.1,394.6 350.4,387.5 352.8,393.2 355.1,392.9 357.5,387.0 359.8,393.6 362.2,397.6 364.5,402.7 366.8,403.6 369.2,403.6 371.5,403.6" fill="none" stroke="#2ecc71" stroke-width="2" stroke-linecap="round" stroke-linejoin="round" />
<polyline points="60.0,398.3 69.1,183.7 78.3,186.9 87.4,228.1 96.5,337.1 105.7,366.3 114.8,221.1 123.9,189.6 133.0,224.4 142.2,187.6 151.3,184.6 160.4,184.3 169.6,189.7 178.7,206.3 187.8,256.1 197.0,189.5 206.1,211.2 215.2,396.2 224.3,358.3 233.5,362.2 242.6,394.7 251.7,395.1 260.9,395.9 270.0,397.9 279.1,396.8 288.3,396.2 297.4,396.6 306.5,395.1 315.6,394.9 324.8,397.1 333.9,397.2 343.0,397.1 352.2,398.4 361.3,401.9 370.4,402.0 379.6,402.0 388.7,402.3 397.8,402.3 406.9,402.3 416.1,402.3 425.2,402.3 434.3,402.3 443.5,402.3 452.6,402.3 461.7,402.3 470.9,402.3 480.0,401.2 489.1,401.8 498.2,401.8 507.4,401.8 516.5,401.7 525.6,401.8 534.8,401.8 543.9,401.8 553.0,401.8 562.2,401.8 571.3,400.8 580.4,402.7 589.5,402.7 598.7,402.7 607.8,402.7 616.9,402.7 626.1,402.7 635.2,403.2 644.3,403.6 653.5,403.6 662.6,403.6 671.7,403.6 680.8,403.6 690.0,403.6 699.1,403.6 708.2,403.6 717.4,403.6 726.5,403.6 735.6,403.6 744.8,403.6 753.9,403.6 763.0,403.6 772.1,403.6 781.3,403.6 790.4,403.6 799.5,403.6 808.7,403.6 817.8,403.6 826.9,403.6 836.1,403.6 845.2,403.6 854.3,403.6 863.4,403.7 872.6,403.6 881.7,403.6 890.8,403.6 900.0,402.8 909.1,403.5 918.2,403.6 927.4,403.6 936.5,403.6 945.6,403.6 954.7,403.4 963.9,400.9 973.0,403.6 982.1,403.6 991.3,403.6 1000.4,403.6 1009.5,403.6 1018.7,403.6 1027.8,403.6 1036.9,403.6 1046.0,403.6 1055.2,403.6" fill="none" stroke="#9b59b6" stroke-width="2" stroke-linecap="round" stroke-linejoin="round" />
<polyline points="60.0,402.3 67.2,400.9 76.2,403.5 83.1,402.3 90.1,389.6 99.3,384.8 106.3,392.4 113.2,384.1 122.7,403.5 131.7,403.6 140.9,392.4 150.4,387.2 159.4,388.9 166.4,387.0 173.3,385.2 182.6,392.6 189.5,403.5 198.8,386.9 205.9,391.7 214.9,392.5 221.9,396.2 228.8,379.5 235.8,384.4 242.7,385.9 251.9,389.3 258.9,385.6 265.8,395.1 275.3,387.0 284.3,385.6 291.3,388.8 300.5,384.0 309.8,383.9 317.0,388.9 325.9,392.6 335.2,387.6 342.1,388.4 349.1,388.5 356.0,387.4 365.3,380.1 372.5,387.8 381.4,381.5 390.7,386.1 397.6,380.0 406.9,384.2 414.1,388.3 423.1,381.3 432.3,386.5 441.8,383.0 450.8,387.4 460.1,393.5 469.6,393.7 478.6,389.7 487.8,385.6 494.8,383.6 501.7,384.0 511.2,379.9 520.2,390.0 527.1,384.7 536.4,383.5 543.3,389.6 552.8,386.2 561.8,380.9 571.1,392.5 580.6,388.2 589.6,393.7 598.8,396.5 605.8,398.2 612.7,389.4 622.2,384.9 631.2,368.3 640.5,334.2 647.4,400.4 654.3,395.5 663.8,384.8 672.8,371.0 679.8,402.4 686.7,366.9 696.0,372.1 702.9,400.4 709.8,374.1 716.8,400.1 726.0,398.5 733.2,386.6 742.2,394.5 751.5,397.0 761.0,385.7 770.0,390.7 776.9,394.2 786.2,400.1 793.1,399.9 802.6,393.5 811.6,395.2 820.9,379.8 830.3,352.9 839.3,393.4 848.6,403.5 858.1,403.5 867.1,401.0 874.1,386.7 883.3,377.5 892.5,378.6 899.7,370.2 908.7,375.3 915.7,379.6 924.9,398.1 934.2,400.2 941.3,396.1 950.4,383.9 957.3,388.2 964.2,388.6 973.5,364.9 980.4,341.3 987.4,312.2 994.3,311.4 1003.6,313.3 1010.7,400.0 1019.7,403.6 1029.0,403.6 1038.5,403.6 1047.5,403.6 1056.7,403.6 1063.7,403.7 1070.6,403.6 1080.1,403.6 1086.8,405.0 1089.1,404.9 1091.4,404.9 1094.0,404.9 1096.1,404.9 1098.4,404.8 1100.7,404.8 1103.0,404.8 1105.3,404.8 1108.0,404.8 1109.9,404.8 1112.2,404.8 1114.6,404.8 1116.9,404.8 1119.2,404.8 1121.6,404.8 1123.8,404.8 1126.1,404.9 1128.4,404.8 1130.7,404.8 1133.1,404.9 1135.6,404.8 1137.7,404.8 1140.0,404.8" fill="none" stroke="#f39c12" stroke-width="3" stroke-linecap="round" stroke-linejoin="round" />
<!-- Legend -->
<line x1="60" y1="476" x2="92" y2="476" stroke="#3498db" stroke-width="4" />
<text x="102" y="482" fill="#aaa" font-size="22">★ Mixed</text>
<line x1="420" y1="476" x2="452" y2="476" stroke="#2ecc71" stroke-width="2" />
<text x="462" y="482" fill="#aaa" font-size="22">My Drying Time - 20min…</text>
<line x1="780" y1="476" x2="812" y2="476" stroke="#9b59b6" stroke-width="2" />
<text x="822" y="482" fill="#aaa" font-size="22">Quick</text>
<line x1="60" y1="510" x2="92" y2="510" stroke="#f39c12" stroke-width="3" />
<text x="102" y="516" fill="#aaa" font-size="22">This cycle (actual)</text>
</svg>