<svg xmlns="http://www.w3.org/2000/svg" viewBox="0 0 800 400" style="background-color: #1c1c1c; font-family: sans-serif;">
    <rect x="0" y="0" width="800" height="400" fill="#1c1c1c" />
    <line x1="50" y1="360" x2="750" y2="360" stroke="#444" stroke-width="2" />
    <line x1="50" y1="40" x2="50" y2="360" stroke="#444" stroke-width="2" />
    <text x="50" y="25" fill="#aaa" font-size="16">1807W</text>
    <text x="750" y="390" fill="#aaa" font-size="16" text-anchor="middle">1330s</text>
    <text x="400.0" y="25" fill="#fff" font-size="20" text-anchor="middle" font-weight="bold">Recording Preview</text>
    <polyline points="50.0,358.8 55.3,358.8 61.1,355.2 65.8,353.6 71.0,315.2 76.3,74.6 86.8,63.9 92.6,55.2 97.4,79.3 102.6,67.2 107.9,80.6 113.2,80.9 118.4,67.2 123.9,82.2 128.9,83.8 134.2,68.6 139.5,82.2 145.3,85.1 150.0,69.3 155.8,82.5 160.5,85.1 165.8,71.8 171.0,85.7 176.3,85.1 181.6,71.8 187.4,85.1 197.4,74.9 202.6,86.3 207.9,85.1 213.2,79.3 219.0,86.0 223.7,85.1 228.9,80.9 234.2,85.1 239.9,86.7 244.7,80.9 250.5,87.6 255.3,86.7 260.5,80.2 265.8,87.9 271.0,86.7 276.3,82.5 282.1,113.5 286.8,87.9 292.1,82.5 297.4,86.7 303.2,88.8 307.9,82.5 313.7,83.5 318.4,86.3 323.7,83.8 328.9,87.9 334.2,86.3 339.5,85.1 345.3,89.8 350.0,89.1 355.3,86.7 360.5,90.7 366.0,87.9 371.0,89.1 376.9,89.8 381.6,89.4 397.4,347.5 402.6,352.3 408.4,350.4 413.2,350.7 418.4,352.0 423.7,350.7 428.9,350.6 434.2,350.4 440.0,350.8 444.7,350.4 450.0,350.7 455.3,351.8 460.5,350.6 465.8,346.4 471.6,357.0 476.3,352.9 481.6,354.3 486.8,355.0 492.2,352.0 497.4,352.3 503.2,354.7 507.9,349.5 513.2,353.0 518.4,352.9 523.7,353.6 528.9,352.9 535.4,351.2 539.5,353.1 544.7,353.0 550.0,343.1 555.3,352.4 560.5,352.9 566.3,341.7 571.0,352.7 576.3,352.3 581.6,338.9 586.9,352.7 592.1,348.9 597.9,341.5 602.6,353.9 607.9,352.8 613.2,341.8 618.5,352.7 623.7,352.5 629.5,341.6 634.2,349.5 639.5,353.0 644.7,341.0 650.3,353.0 655.3,352.8 661.1,340.3 665.8,353.8 671.1,353.5 676.3,336.5 681.6,352.5 686.8,353.2 692.7,338.9 697.4,352.5 702.6,352.5 707.9,338.0 713.2,352.0 718.4,349.2 724.2,336.9 728.9,352.6 734.2,353.3 739.5,358.5 744.8,358.8 750.0,358.8" stroke="#e6194b" stroke-width="2" stroke-opacity="0.5" fill="none" /><polyline points="50.0,358.8 55.3,358.8 61.1,355.2 65.8,353.6 71.0,315.2 76.3,74.6 86.8,63.9 92.6,55.2 97.4,79.3 102.6,67.2 107.9,80.6 113.2,80.9 118.4,67.2 123.9,82.2 128.9,83.8 134.2,68.6 139.5,82.2 145.3,85.1 150.0,69.3 155.8,82.5 160.5,85.1 165.8,71.8 171.0,85.7 176.3,85.1 181.6,71.8 187.4,85.1 197.4,74.9 202.6,86.3 207.9,85.1 213.2,79.3 219.0,86.0 223.7,85.1 228.9,80.9 234.2,85.1 239.9,86.7 244.7,80.9 250.5,87.6 255.3,86.7 260.5,80.2 265.8,87.9 271.0,86.7 276.3,82.5 282.1,113.5 286.8,87.9 292.1,82.5 297.4,86.7 303.2,88.8 307.9,82.5 313.7,83.5 318.4,86.3 323.7,83.8 328.9,87.9 334.2,86.3 339.5,85.1 345.3,89.8 350.0,89.1 355.3,86.7 360.5,90.7 366.0,87.9 371.0,89.1 376.9,89.8 381.6,89.4 397.4,347.5 402.6,352.3 408.4,350.4 413.2,350.7 418.4,352.0 423.7,350.7 428.9,350.6 434.2,350.4 440.0,350.8 444.7,350.4 450.0,350.7 455.3,351.8 460.5,350.6 465.8,346.4 471.6,357.0 476.3,352.9 481.6,354.3 486.8,355.0 492.2,352.0 497.4,352.3 503.2,354.7 507.9,349.5 513.2,353.0 518.4,352.9 523.7,353.6 528.9,352.9 535.4,351.2 539.5,353.1 544.7,353.0 550.0,343.1 555.3,352.4 560.5,352.9 566.3,341.7 571.0,352.7 576.3,352.3 581.6,338.9 586.9,352.7 592.1,348.9 597.9,341.5 602.6,353.9 607.9,352.8 613.2,341.8 618.5,352.7 623.7,352.5 629.5,341.6 634.2,349.5 639.5,353.0 644.7,341.0 650.3,353.0 655.3,352.8 661.1,340.3 665.8,353.8 671.1,353.5 676.3,336.5 681.6,352.5 686.8,353.2 692.7,338.9 697.4,352.5 702.6,352.5 707.9,338.0 713.2,352.0 718.4,349.2 724.2,336.9 728.9,352.6 734.2,353.3 739.5,358.5 744.8,358.8 750.0,358.8" stroke="#4363d8" stroke-width="2" stroke-opacity="1.0" fill="none" /><line x1="50.0" y1="40" x2="50.0" y2="360" stroke="#e6194b" stroke-dasharray="4" stroke-width="1" /><text x="50.0" y="375" fill="#e6194b" font-size="12" text-anchor="middle">Trim Start</text><line x1="750.0" y1="40" x2="750.0" y2="360" stroke="#e6194b" stroke-dasharray="4" stroke-width="1" /><text x="750.0" y="375" fill="#e6194b" font-size="12" text-anchor="middle">Trim End</text></svg>