<svg xmlns="http://www.w3.org/2000/svg" viewBox="0 0 800 400" style="background-color: #1c1c1c; font-family: sans-serif;">
    <rect x="0" y="0" width="800" height="400" fill="#1c1c1c" />
    <line x1="50" y1="360" x2="750" y2="360" stroke="#444" stroke-width="2" />
    <line x1="50" y1="40" x2="50" y2="360" stroke="#444" stroke-width="2" />
    <text x="50" y="25" fill="#aaa" font-size="16">522W</text>
    <text x="750" y="390" fill="#aaa" font-size="16" text-anchor="middle">4969s</text>
    <text x="400.0" y="25" fill="#fff" font-size="20" text-anchor="middle" font-weight="bold">Recording Preview</text>
    <polyline points="50.0,359.5 51.3,314.9 52.7,240.6 54.1,355.4 55.5,355.5 56.9,355.3 58.5,343.2 59.8,347.8 61.2,351.6 62.6,351.7 64.0,355.5 65.4,339.9 66.9,347.1 68.2,341.4 69.6,355.6 71.0,351.8 72.4,351.9 73.8,355.5 75.4,326.6 76.7,327.1 78.1,331.0 79.5,311.1 80.9,307.1 82.3,286.5 83.9,305.0 85.1,301.3 86.5,281.6 87.9,294.4 89.3,314.3 90.7,280.4 92.5,287.9 93.6,293.1 95.0,287.5 96.4,295.7 97.8,315.4 99.2,285.1 100.7,303.9 102.0,266.9 103.4,276.4 104.8,314.7 106.2,293.7 107.7,264.3 109.2,291.6 110.5,293.5 111.9,281.3 113.3,302.2 114.7,276.1 116.1,272.4 117.8,287.7 118.9,308.1 120.3,266.8 121.7,281.8 123.1,282.7 124.6,276.0 126.1,286.3 127.4,280.6 128.8,287.4 130.2,286.6 131.6,274.6 133.0,266.1 134.5,295.0 135.8,301.3 137.2,267.5 138.6,277.5 140.1,289.4 141.5,278.3 143.0,277.6 144.3,288.7 145.7,281.0 147.1,266.8 148.5,286.5 149.9,270.5 151.4,288.1 152.7,289.9 154.1,279.1 155.5,295.3 157.0,286.1 158.4,267.7 159.9,275.3 161.2,277.2 162.6,283.0 164.0,280.4 165.4,286.3 166.8,286.3 168.3,284.9 169.7,301.0 171.0,285.1 172.4,309.3 173.9,296.5 175.3,281.8 176.8,297.2 178.1,300.3 179.5,280.0 180.9,285.8 182.3,282.6 183.7,276.5 185.2,286.3 186.5,284.5 187.9,278.0 189.4,293.5 190.8,285.1 192.2,263.3 193.7,279.3 195.0,299.4 196.4,266.7 197.8,270.8 199.2,288.0 200.6,265.3 202.1,282.4 203.4,294.3 204.8,256.7 206.3,311.1 207.7,295.5 209.1,260.0 210.6,281.8 211.9,285.3 213.3,252.4 214.7,297.5 216.1,295.2 217.5,257.8 219.0,287.0 220.3,273.8 221.8,257.0 223.2,296.2 224.6,284.8 226.0,252.6 227.5,295.0 228.8,299.6 230.2,265.8 231.6,287.4 233.0,276.7 234.4,269.9 235.9,288.0 237.2,283.9 238.7,263.8 240.1,317.9 241.5,273.4 242.9,266.1 244.4,278.9 245.7,299.0 247.1,271.2 248.5,284.2 249.9,289.0 251.3,271.0 252.8,292.1 254.2,355.6 255.6,305.9 257.0,309.5 258.4,355.6 259.8,282.2 261.3,302.2 262.6,355.6 264.0,289.2 265.4,308.3 266.8,355.7 268.2,266.3 269.8,285.4 271.1,355.5 272.5,274.1 273.9,275.2 275.3,355.5 276.7,284.6 278.2,283.4 279.5,340.2 280.9,340.2 282.3,286.5 283.7,335.9 285.1,328.5 286.7,270.2 288.0,339.3 289.4,327.5 290.8,293.1 292.2,327.6 293.6,332.5 295.0,295.4 296.4,335.7 297.8,329.8 299.2,297.8 300.6,334.1 302.0,327.7 303.5,304.1 304.9,318.1 306.3,340.1 307.7,303.3 309.1,332.6 310.5,330.6 311.9,334.4 313.3,338.0 314.7,331.7 316.1,334.2 317.5,309.3 319.0,291.5 320.5,300.6 321.8,307.7 323.2,305.5 324.6,294.5 326.0,283.1 327.4,263.0 328.9,245.6 330.2,226.1 331.6,204.7 333.0,179.0 334.4,151.5 335.9,262.2 337.4,341.2 338.7,345.6 340.1,312.6 341.5,352.4 342.9,351.7 344.3,331.7 345.8,319.9 347.1,317.2 348.5,351.8 349.9,316.2 351.3,319.8 352.8,293.8 354.3,352.0 355.6,288.1 357.0,319.2 358.4,272.6 359.8,355.0 361.2,281.9 362.7,311.7 364.0,236.7 365.4,343.2 366.8,266.9 368.3,326.5 369.7,239.3 371.2,343.4 372.5,246.3 373.9,341.2 375.3,240.0 376.7,344.0 378.1,222.7 379.6,340.7 380.9,256.6 382.3,343.9 383.7,259.9 385.2,341.8 386.6,245.8 388.1,344.1 389.4,266.0 390.8,338.7 392.2,280.2 393.6,339.6 395.0,280.5 396.5,330.0 397.8,330.0 399.2,291.4 400.7,328.6 402.1,295.5 403.5,326.9 405.0,337.0 406.3,300.5 407.7,343.0 409.1,330.0 410.5,336.0 411.9,291.9 413.4,308.7 414.7,308.5 416.1,305.9 417.6,301.8 419.0,291.2 420.4,287.3 421.9,264.5 423.2,247.5 424.6,227.1 426.0,198.7 427.4,171.8 428.8,141.4 430.3,340.5 431.6,345.0 433.1,345.4 434.5,335.7 435.9,336.0 437.3,318.6 438.8,356.5 440.1,327.6 441.5,322.7 442.9,323.5 444.3,317.8 445.7,310.8 447.2,320.2 448.5,315.6 450.0,302.5 451.4,277.8 452.8,299.4 454.2,322.8 455.7,281.2 457.0,268.7 458.4,271.6 459.8,330.6 461.2,281.1 462.6,271.2 464.1,313.7 465.5,347.7 466.9,290.9 468.3,277.7 469.7,280.2 471.1,352.4 472.6,263.8 473.9,272.4 475.3,270.3 476.7,352.4 478.1,290.9 479.5,267.3 481.1,273.5 482.4,355.7 483.8,280.0 485.2,250.8 486.6,284.4 488.0,339.7 489.5,206.0 490.8,330.7 492.2,292.5 493.6,331.2 495.0,330.4 496.4,335.2 498.0,342.3 499.3,331.9 500.7,333.9 502.1,297.1 503.5,308.8 504.9,306.6 506.4,303.2 507.7,303.0 509.1,345.5 510.5,334.9 511.9,300.3 513.3,320.9 514.9,266.1 516.2,264.7 517.6,248.6 519.0,232.3 520.4,237.6 521.8,227.8 523.3,224.0 524.6,216.2 526.0,208.2 527.4,202.6 528.8,195.4 530.2,190.6 531.8,182.8 533.1,176.1 534.5,166.4 535.9,184.0 537.3,181.9 538.7,184.0 540.2,183.6 541.5,183.1 542.9,184.3 544.3,183.6 545.7,185.9 547.2,183.0 548.7,187.1 550.0,185.0 551.4,144.5 552.8,133.5 554.2,116.7 555.6,95.7 557.1,73.6 558.4,55.2 559.8,86.3 561.2,85.9 562.6,86.3 564.1,86.7 565.6,90.0 566.9,90.3 568.3,90.7 569.7,91.2 571.1,88.8 572.5,90.4 574.0,89.9 575.3,92.7 576.7,93.8 578.1,93.1 579.6,91.7 581.0,92.3 582.5,94.3 583.8,95.3 585.2,95.4 586.6,193.6 588.0,311.8 589.4,335.6 590.9,344.8 592.2,345.0 593.6,345.1 595.0,355.8 596.5,355.8 597.9,355.9 599.4,355.7 600.7,355.7 602.1,355.6 603.5,355.7 604.9,355.9 606.3,355.9 607.8,355.8 609.1,355.7 610.5,355.8 612.0,355.8 613.4,355.9 614.8,355.8 616.3,355.8 617.6,355.8 619.0,355.9 620.4,355.8 621.8,355.7 623.2,355.9 624.6,355.7 626.0,355.8 627.4,355.9 628.9,355.8 630.3,355.8 631.7,355.7 633.2,355.8 634.5,355.8 635.9,355.9 637.3,355.7 638.7,355.8 640.1,355.8 641.6,356.0 642.9,355.8 644.4,355.8 645.8,355.8 647.2,355.8 648.6,355.8 650.1,355.7 651.4,356.0 652.8,355.8 654.2,355.8 655.6,355.8 657.0,355.8 658.5,355.9 659.8,355.8 661.3,355.7 662.7,355.8 664.1,355.7 665.5,359.6 667.0,359.6 668.3,359.6 669.7,359.6 671.1,359.6 672.5,359.5 673.9,359.5 675.4,359.5 676.7,359.5 678.2,359.5 679.6,359.5 681.0,359.5 682.4,359.5 683.9,359.5 685.2,359.5 686.6,359.5 688.0,359.5 689.4,359.5 690.8,359.5 692.3,359.5 693.7,359.5 695.1,359.5 696.5,359.5 697.9,359.5 699.3,359.5 700.8,359.5 702.1,359.5 703.5,359.5 704.9,359.5 706.3,359.5 707.7,359.5 709.3,359.5 710.6,359.5 712.0,359.5 713.4,359.5 714.8,359.5 716.2,359.5 717.7,359.5 719.0,359.5 720.4,359.5 721.8,359.5 723.2,359.5 724.6,359.5 726.2,359.5 727.5,359.5 728.9,359.5 730.3,359.5 731.7,359.5 733.1,359.5 734.6,359.5 735.9,359.5 737.3,359.5 738.7,359.5 740.1,359.5 741.5,359.5 743.1,359.5 744.4,359.6 745.8,359.5 747.2,359.5 748.6,359.5 750.0,360.0" stroke="#e6194b" stroke-width="2" stroke-opacity="0.5" fill="none" /><polyline points="52.7,240.6 54.1,355.4 55.5,355.5 56.9,355.3 58.5,343.2 59.8,347.8 61.2,351.6 62.6,351.7 64.0,355.5 65.4,339.9 66.9,347.1 68.2,341.4 69.6,355.6 71.0,351.8 72.4,351.9 73.8,355.5 75.4,326.6 76.7,327.1 78.1,331.0 79.5,311.1 80.9,307.1 82.3,286.5 83.9,305.0 85.1,301.3 86.5,281.6 87.9,294.4 89.3,314.3 90.7,280.4 92.5,287.9 93.6,293.1 95.0,287.5 96.4,295.7 97.8,315.4 99.2,285.1 100.7,303.9 102.0,266.9 103.4,276.4 104.8,314.7 106.2,293.7 107.7,264.3 109.2,291.6 110.5,293.5 111.9,281.3 113.3,302.2 114.7,276.1 116.1,272.4 117.8,287.7 118.9,308.1 120.3,266.8 121.7,281.8 123.1,282.7 124.6,276.0 126.1,286.3 127.4,280.6 128.8,287.4 130.2,286.6 131.6,274.6 133.0,266.1 134.5,295.0 135.8,301.3 137.2,267.5 138.6,277.5 140.1,289.4 141.5,278.3 143.0,277.6 144.3,288.7 145.7,281.0 147.1,266.8 148.5,286.5 149.9,270.5 151.4,288.1 152.7,289.9 154.1,279.1 155.5,295.3 157.0,286.1 158.4,267.7 159.9,275.3 161.2,277.2 162.6,283.0 164.0,280.4 165.4,286.3 166.8,286.3 168.3,284.9 169.7,301.0 171.0,285.1 172.4,309.3 173.9,296.5 175.3,281.8 176.8,297.2 178.1,300.3 179.5,280.0 180.9,285.8 182.3,282.6 183.7,276.5 185.2,286.3 186.5,284.5 187.9,278.0 189.4,293.5 190.8,285.1 192.2,263.3 193.7,279.3 195.0,299.4 196.4,266.7 197.8,270.8 199.2,288.0 200.6,265.3 202.1,282.4 203.4,294.3 204.8,256.7 206.3,311.1 207.7,295.5 209.1,260.0 210.6,281.8 211.9,285.3 213.3,252.4 214.7,297.5 216.1,295.2 217.5,257.8 219.0,287.0 220.3,273.8 221.8,257.0 223.2,296.2 224.6,284.8 226.0,252.6 227.5,295.0 228.8,299.6 230.2,265.8 231.6,287.4 233.0,276.7 234.4,269.9 235.9,288.0 237.2,283.9 238.7,263.8 240.1,317.9 241.5,273.4 242.9,266.1 244.4,278.9 245.7,299.0 247.1,271.2 248.5,284.2 249.9,289.0 251.3,271.0 252.8,292.1 254.2,355.6 255.6,305.9 257.0,309.5 258.4,355.6 259.8,282.2 261.3,302.2 262.6,355.6 264.0,289.2 265.4,308.3 266.8,355.7 268.2,266.3 269.8,285.4 271.1,355.5 272.5,274.1 273.9,275.2 275.3,355.5 276.7,284.6 278.2,283.4 279.5,340.2 280.9,340.2 282.3,286.5 283.7,335.9 285.1,328.5 286.7,270.2 288.0,339.3 289.4,327.5 290.8,293.1 292.2,327.6 293.6,332.5 295.0,295.4 296.4,335.7 297.8,329.8 299.2,297.8 300.6,334.1 302.0,327.7 303.5,304.1 304.9,318.1 306.3,340.1 307.7,303.3 309.1,332.6 310.5,330.6 311.9,334.4 313.3,338.0 314.7,331.7 316.1,334.2 317.5,309.3 319.0,291.5 320.5,300.6 321.8,307.7 323.2,305.5 324.6,294.5 326.0,283.1 327.4,263.0 328.9,245.6 330.2,226.1 331.6,204.7 333.0,179.0 334.4,151.5 335.9,262.2 337.4,341.2 338.7,345.6 340.1,312.6 341.5,352.4 342.9,351.7 344.3,331.7 345.8,319.9 347.1,317.2 348.5,351.8 349.9,316.2 351.3,319.8 352.8,293.8 354.3,352.0 355.6,288.1 357.0,319.2 358.4,272.6 359.8,355.0 361.2,281.9 362.7,311.7 364.0,236.7 365.4,343.2 366.8,266.9 368.3,326.5 369.7,239.3 371.2,343.4 372.5,246.3 373.9,341.2 375.3,240.0 376.7,344.0 378.1,222.7 379.6,340.7 380.9,256.6 382.3,343.9 383.7,259.9 385.2,341.8 386.6,245.8 388.1,344.1 389.4,266.0 390.8,338.7 392.2,280.2 393.6,339.6 395.0,280.5 396.5,330.0 397.8,330.0 399.2,291.4 400.7,328.6 402.1,295.5 403.5,326.9 405.0,337.0 406.3,300.5 407.7,343.0 409.1,330.0 410.5,336.0 411.9,291.9 413.4,308.7 414.7,308.5 416.1,305.9 417.6,301.8 419.0,291.2 420.4,287.3 421.9,264.5 423.2,247.5 424.6,227.1 426.0,198.7 427.4,171.8 428.8,141.4 430.3,340.5 431.6,345.0 433.1,345.4 434.5,335.7 435.9,336.0 437.3,318.6 438.8,356.5 440.1,327.6 441.5,322.7 442.9,323.5 444.3,317.8 445.7,310.8 447.2,320.2 448.5,315.6 450.0,302.5 451.4,277.8 452.8,299.4 454.2,322.8 455.7,281.2 457.0,268.7 458.4,271.6 459.8,330.6 461.2,281.1 462.6,271.2 464.1,313.7 465.5,347.7 466.9,290.9 468.3,277.7 469.7,280.2 471.1,352.4 472.6,263.8 473.9,272.4 475.3,270.3 476.7,352.4 478.1,290.9 479.5,267.3 481.1,273.5 482.4,355.7 483.8,280.0 485.2,250.8 486.6,284.4 488.0,339.7 489.5,206.0 490.8,330.7 492.2,292.5 493.6,331.2 495.0,330.4 496.4,335.2 498.0,342.3 499.3,331.9 500.7,333.9 502.1,297.1 503.5,308.8 504.9,306.6 506.4,303.2 507.7,303.0 509.1,345.5 510.5,334.9 511.9,300.3 513.3,320.9 514.9,266.1 516.2,264.7 517.6,248.6 519.0,232.3 520.4,237.6 521.8,227.8 523.3,224.0 524.6,216.2 526.0,208.2 527.4,202.6 528.8,195.4 530.2,190.6 531.8,182.8 533.1,176.1 534.5,166.4 535.9,184.0 537.3,181.9 538.7,184.0 540.2,183.6 541.5,183.1 542.9,184.3 544.3,183.6 545.7,185.9 547.2,183.0 548.7,187.1 550.0,185.0 551.4,144.5 552.8,133.5 554.2,116.7 555.6,95.7 557.1,73.6 558.4,55.2 559.8,86.3 561.2,85.9 562.6,86.3 564.1,86.7 565.6,90.0 566.9,90.3 568.3,90.7 569.7,91.2 571.1,88.8 572.5,90.4 574.0,89.9 575.3,92.7 576.7,93.8 578.1,93.1" stroke="#4363d8" stroke-width="2" stroke-opacity="1.0" fill="none" /><line x1="51.4" y1="40" x2="51.4" y2="360" stroke="#e6194b" stroke-dasharray="4" stroke-width="1" /><text x="51.4" y="375" fill="#e6194b" font-size="12" text-anchor="middle">Trim Start</text><line x1="578.1" y1="40" x2="578.1" y2="360" stroke="#e6194b" stroke-dasharray="4" stroke-width="1" /><text x="578.1" y="375" fill="#e6194b" font-size="12" text-anchor="middle">Trim End</text></svg>