<svg xmlns="http://www.w3.org/2000/svg" viewBox="0 0 800 400" style="background-color: #1c1c1c; font-family: sans-serif;">
    <rect x="0" y="0" width="800" height="400" fill="#1c1c1c" />
    <line x1="50" y1="360" x2="750" y2="360" stroke="#444" stroke-width="2" />
    <line x1="50" y1="40" x2="50" y2="360" stroke="#444" stroke-width="2" />
    <text x="50" y="25" fill="#aaa" font-size="16">1736W</text>
    <text x="750" y="390" fill="#aaa" font-size="16" text-anchor="middle">1810s</text>
    <text x="400.0" y="25" fill="#fff" font-size="20" text-anchor="middle" font-weight="bold">Recording Preview</text>
    <polyline points="50.0,69.5 54.3,72.5 57.7,72.2 61.6,72.5 65.5,72.2 69.6,72.5 73.2,73.8 77.2,72.9 80.9,69.2 84.8,74.2 88.7,73.8 92.8,72.2 96.4,75.2 100.5,72.5 104.1,70.8 108.0,75.5 111.9,73.8 116.1,70.8 119.6,73.8 123.9,73.5 127.3,70.8 131.2,75.5 135.1,72.5 142.8,74.2 150.5,75.5 154.4,75.2 158.3,73.8 162.2,77.1 166.0,75.5 170.3,74.8 173.8,76.8 177.6,73.8 181.5,75.2 185.5,76.8 189.2,75.5 193.5,76.1 197.0,75.5 200.8,73.8 204.7,72.5 212.4,74.2 216.4,72.9 220.2,69.5 224.0,74.2 227.9,73.8 232.1,63.6 235.6,73.8 239.9,71.9 243.4,61.8 247.2,72.5 251.1,73.8 255.5,60.0 258.8,73.8 263.1,69.2 266.6,61.8 270.4,74.2 278.6,63.6 282.1,76.8 286.3,74.2 289.8,63.2 293.6,71.2 297.5,73.8 301.6,60.0 305.2,75.5 309.5,71.9 313.0,58.6 316.8,74.2 320.7,72.9 324.6,56.0 328.4,74.2 332.7,73.8 336.2,65.7 340.0,72.5 347.8,58.6 351.7,75.5 355.9,72.5 359.4,58.6 363.3,73.8 367.1,74.2 371.5,57.1 374.9,74.2 379.1,73.2 382.6,56.7 386.5,67.8 390.3,72.5 394.5,55.6 398.1,73.8 402.3,72.2 405.8,333.9 409.7,350.1 413.5,350.1 417.4,330.7 421.3,71.2 429.0,55.2 432.9,71.2 436.7,70.8 441.0,57.5 444.5,70.8 448.4,68.5 452.2,57.1 456.1,72.5 463.8,57.1 467.7,351.9 471.9,350.2 475.4,334.6 479.3,347.0 483.1,350.9 487.0,348.4 490.9,350.9 495.1,349.9 498.6,353.0 502.5,350.8 506.4,350.1 510.2,353.1 514.1,349.9 518.3,346.3 521.8,352.9 525.7,350.9 529.5,351.0 533.4,352.9 537.3,350.8 541.5,350.7 545.0,352.9 548.9,345.9 552.8,350.5 556.6,352.9 560.5,350.5 564.8,350.9 568.2,355.0 572.1,353.9 576.0,353.8 579.8,350.3 583.7,352.3 588.0,352.3 591.4,355.0 595.3,353.3 599.2,352.3 603.0,355.3 606.9,352.4 611.2,347.7 614.6,355.1 618.5,353.1 622.4,353.4 626.2,355.0 630.1,352.4 634.4,353.3 637.8,355.1 641.7,347.9 645.6,352.5 649.7,355.0 653.3,352.3 657.6,353.3 661.0,355.1 664.9,352.9 668.8,353.5 672.9,350.3 676.5,352.9 680.8,352.4 684.2,355.0 688.1,352.3 692.0,352.1 695.9,355.0 699.7,352.6 703.7,348.1 707.4,355.0 711.3,353.4 715.2,353.8 719.3,351.6 722.9,358.7 727.2,358.8 730.6,358.8 734.5,358.8 738.4,358.8 742.4,358.8 746.1,358.8 750.0,358.8" stroke="#e6194b" stroke-width="2" stroke-opacity="0.5" fill="none" /><polyline points="50.0,69.5 54.3,72.5 57.7,72.2 61.6,72.5 65.5,72.2 69.6,72.5 73.2,73.8 77.2,72.9 80.9,69.2 84.8,74.2 88.7,73.8 92.8,72.2 96.4,75.2 100.5,72.5 104.1,70.8 108.0,75.5 111.9,73.8 116.1,70.8 119.6,73.8 123.9,73.5 127.3,70.8 131.2,75.5 135.1,72.5 142.8,74.2 150.5,75.5 154.4,75.2 158.3,73.8 162.2,77.1 166.0,75.5 170.3,74.8 173.8,76.8 177.6,73.8 181.5,75.2 185.5,76.8 189.2,75.5 193.5,76.1 197.0,75.5 200.8,73.8 204.7,72.5 212.4,74.2 216.4,72.9 220.2,69.5 224.0,74.2 227.9,73.8 232.1,63.6 235.6,73.8 239.9,71.9 243.4,61.8 247.2,72.5 251.1,73.8 255.5,60.0 258.8,73.8 263.1,69.2 266.6,61.8 270.4,74.2 278.6,63.6 282.1,76.8 286.3,74.2 289.8,63.2 293.6,71.2 297.5,73.8 301.6,60.0 305.2,75.5 309.5,71.9 313.0,58.6 316.8,74.2 320.7,72.9 324.6,56.0 328.4,74.2 332.7,73.8 336.2,65.7 340.0,72.5 347.8,58.6 351.7,75.5 355.9,72.5 359.4,58.6 363.3,73.8 367.1,74.2 371.5,57.1 374.9,74.2 379.1,73.2 382.6,56.7 386.5,67.8 390.3,72.5 394.5,55.6 398.1,73.8 402.3,72.2 405.8,333.9 409.7,350.1 413.5,350.1 417.4,330.7 421.3,71.2 429.0,55.2 432.9,71.2 436.7,70.8 441.0,57.5 444.5,70.8 448.4,68.5 452.2,57.1 456.1,72.5 463.8,57.1 467.7,351.9 471.9,350.2 475.4,334.6 479.3,347.0 483.1,350.9 487.0,348.4 490.9,350.9 495.1,349.9 498.6,353.0 502.5,350.8 506.4,350.1 510.2,353.1 514.1,349.9 518.3,346.3 521.8,352.9 525.7,350.9 529.5,351.0 533.4,352.9 537.3,350.8 541.5,350.7 545.0,352.9 548.9,345.9 552.8,350.5 556.6,352.9 560.5,350.5 564.8,350.9 568.2,355.0 572.1,353.9 576.0,353.8 579.8,350.3 583.7,352.3 588.0,352.3 591.4,355.0 595.3,353.3 599.2,352.3 603.0,355.3 606.9,352.4 611.2,347.7 614.6,355.1 618.5,353.1 622.4,353.4 626.2,355.0 630.1,352.4 634.4,353.3 637.8,355.1 641.7,347.9 645.6,352.5 649.7,355.0 653.3,352.3 657.6,353.3 661.0,355.1 664.9,352.9 668.8,353.5 672.9,350.3 676.5,352.9 680.8,352.4 684.2,355.0 688.1,352.3 692.0,352.1 695.9,355.0 699.7,352.6 703.7,348.1 707.4,355.0 711.3,353.4 715.2,353.8 719.3,351.6 722.9,358.7 727.2,358.8 730.6,358.8 734.5,358.8 738.4,358.8 742.4,358.8 746.1,358.8 750.0,358.8" stroke="#4363d8" stroke-width="2" stroke-opacity="1.0" fill="none" /><line x1="50.0" y1="40" x2="50.0" y2="360" stroke="#e6194b" stroke-dasharray="4" stroke-width="1" /><text x="50.0" y="375" fill="#e6194b" font-size="12" text-anchor="middle">Trim Start</text><line x1="750.0" y1="40" x2="750.0" y2="360" stroke="#e6194b" stroke-dasharray="4" stroke-width="1" /><text x="750.0" y="375" fill="#e6194b" font-size="12" text-anchor="middle">Trim End</text></svg>